<?xml version="1.0" encoding="utf-8"?>
<!-- Generator: Adobe Illustrator 21.1.0, SVG Export Plug-In . SVG Version: 6.00 Build 0)  -->
<svg version="1.1" id="Laag_1" xmlns="http://www.w3.org/2000/svg" xmlns:xlink="http://www.w3.org/1999/xlink" x="0px" y="0px"
	 viewBox="0 0 212 108" style="enable-background:new 0 0 212 108;" xml:space="preserve">
<style type="text/css">
	.st0{fill:#EC6608;}
	.st1{fill:#005597;}
</style>
<g>
	<path class="st0" d="M33.5,51.2c1-0.2,2-0.6,2.9-1c3.8-1.6,6.7-4.3,8-6.9c-0.6,2.9-2.7,5.8-5.8,7.9c-2.1,1.4-4.4,2.2-6.6,2.5
		c-1.4,2.1-2.8,4-4.4,5.8c3.7-1.8,6.8-3.4,10.3-3.7c2.4-0.2,6,0.1,6.6-2.2c0.3-1.3-0.9-2.1-0.7-3.4c0.2-1.2,1-1.5,1.5-2
		c1.1-1-0.3-1.3-0.2-1.9c0.1-0.6,1.8,0.1,1.1-1.5c-0.8-1.6-0.7-2.5-0.1-3.1c1.3-1.1,5.1,0.6,2.4-4.7c-1.2-2.4-2-3.3-2.5-5.9
		c-0.2-1,0.8-2.2,1.2-3c1.3-2.8-3.4-6.9-6.5-11.9c0.5,4.4,0.5,9.3-0.2,14.3c2.5-1.7,4.3-4,4.8-6.1c-0.1,2.2-1.2,4.7-3.3,6.6
		c-0.6,0.6-1.2,1-1.8,1.4c-0.2,1.1-0.5,2.2-0.7,3.3c-0.4,1.7-0.8,3.3-1.3,4.9c0.5-0.2,1-0.4,1.5-0.7c3-1.6,5.2-4,6.1-6.3
		c-0.3,2.4-1.8,5-4.2,7c-1.3,1-2.7,1.7-4.1,2.2C36.2,45.9,35,48.7,33.5,51.2L33.5,51.2z"/>
	<path class="st1" d="M31.2,43.4c0.3-0.2,1-1.1,1.2-1.3l-2.7-4.1c-0.1-0.2-1.6-2.2-1.7-2.4c-0.3-0.4-0.3-1-0.6-1.4
		c-1-1.4-0.9-2.6-1.2-4.3c-0.4,1.3-0.5,2.7-0.1,4.1l0.3,1.5l0.6,1.5c0.5,0.7,1.1,1.1,1.6,1.8c0.4,0.6,0.7,0.8,1.2,1.5
		c0.6,0.9,0.3,0.5,0.9,1.4C30.9,41.6,31,43.3,31.2,43.4L31.2,43.4z"/>
	<path class="st1" d="M33.6,24c-0.2,0.6-0.7,2.5-0.6,3.2l0.4,1.6c0.8,1.3,1.6,1.4,2.4,2.7c0.1,0.2,0.2,1.5,0.2,1.4
		c0-0.2,0.9-1.7,1-1.9c-0.3-0.3-0.4-0.5-0.7-0.8c-0.3-0.3-0.4-0.5-0.7-0.7c-0.2-0.2-0.3-0.4-0.5-0.7l-1-1.8
		C33.7,26.2,33.8,24.8,33.6,24L33.6,24z"/>
	<path class="st1" d="M28.1,53c-0.4-0.8-0.7-1.4-1.3-2.2l-2.5-3.5c-1.6-2.7-1.5-5.4-2.2-8.3c0,0.6-0.5,2.2-0.6,2.8
		c-0.1,0.5-0.1,0.9,0,1.5c0.1,0.6,0.3,0.7,0.4,1.3c0.2,0.8,0,1.5,0.4,2.2c0.3,0.7-0.2,1.1,0.4,1.7c0.7,0.8,1.6,1.1,2.3,1.8
		c0.8,0.8,0.5,1,1,2c0.3,0.7,0.3,2,0.6,2.7l0.8-0.8c0.2-0.4,0.1-0.5,0.4-0.8C27.9,53.4,28.1,53.1,28.1,53L28.1,53z"/>
</g>
<g>
	<path d="M53.6,84.4h-3.5l0.2-1.5l0,0l0,0c-1.3,1.2-2.6,1.8-4,1.8c-0.9,0-1.7-0.3-2.5-0.8s-1.3-1.2-1.8-2.1c-0.4-0.9-0.6-1.9-0.6-3
		c0-1.8,0.4-3.5,1.3-4.9c0.8-1.4,2-2.5,3.5-3.2c1.5-0.7,3.3-1.1,5.3-1.1c1.4,0,2.7,0.2,4.1,0.5L53.6,84.4z M51.8,72.6
		c-0.3,0-0.6,0-0.9,0c-0.9,0-1.7,0.1-2.4,0.4c-0.7,0.3-1.3,0.7-1.8,1.2c-0.5,0.5-0.9,1.2-1.3,2c-0.3,0.8-0.5,1.7-0.5,2.5
		c0,1,0.2,1.9,0.7,2.5c0.5,0.6,1.1,0.9,1.8,0.9c0.5,0,1-0.2,1.6-0.5c0.6-0.3,1.1-0.8,1.7-1.3L51.8,72.6z"/>
	<path d="M59.5,70H63l-1.1,8c-0.1,0.7-0.2,1.2-0.2,1.4c0,0.2,0,0.5,0,0.7c0,0.5,0.1,1,0.4,1.3c0.3,0.3,0.6,0.5,1.1,0.5
		c0.4,0,1-0.2,1.7-0.6c0.7-0.4,1.5-1.1,2.3-2.1l1.3-9.2h3.4l-2,14.4h-3.4l0.3-2.3c-0.8,0.8-1.7,1.5-2.5,1.9
		c-0.8,0.4-1.6,0.6-2.5,0.6c-0.8,0-1.4-0.2-2-0.5c-0.6-0.3-1-0.8-1.3-1.4c-0.3-0.6-0.4-1.3-0.4-2.1c0-0.7,0.1-1.6,0.2-2.6L59.5,70z"
		/>
	<path d="M86.8,66.1c-1-0.5-1.9-0.7-2.6-0.7c-1.2,0-2.1,0.4-2.7,1.2c-0.7,0.8-1,1.9-1.2,3.5h2.8l-0.4,2.8h-2.9l-2.4,17.9H74
		l2.4-17.9h-2.6l0.4-2.8h2.6c0.2-2.4,0.9-4.3,2.1-5.6c1.2-1.4,2.8-2,4.8-2c0.6,0,1.2,0.1,1.7,0.2c0.6,0.1,1.1,0.3,1.8,0.5L86.8,66.1
		z"/>
	<path class="st1" d="M102.3,74.1c-1.1-0.6-1.9-1-2.5-1.2c-0.6-0.2-1.1-0.3-1.6-0.3c-0.6,0-1,0.1-1.3,0.3c-0.3,0.2-0.4,0.5-0.4,1
		c0,0.2,0.1,0.4,0.3,0.7c0.2,0.2,0.6,0.5,1,0.8l0.8,0.6c0.9,0.7,1.6,1.2,1.9,1.6c0.4,0.4,0.6,0.8,0.9,1.3c0.2,0.5,0.3,1,0.3,1.5
		c0,0.8-0.2,1.6-0.6,2.3c-0.4,0.7-1,1.2-1.8,1.6c-0.8,0.4-1.6,0.6-2.5,0.6c-0.9,0-1.8-0.1-2.6-0.3c-0.9-0.2-1.7-0.6-2.4-1.2l0.6-3
		c0.8,0.5,1.5,0.9,2.2,1.2c0.7,0.3,1.4,0.4,2,0.4c0.5,0,0.9-0.1,1.2-0.4c0.3-0.2,0.5-0.5,0.5-0.9c0-0.3-0.1-0.6-0.4-1
		c-0.3-0.3-0.7-0.7-1.2-1.1c-1.2-0.9-2.1-1.5-2.5-1.9c-0.4-0.4-0.7-0.8-0.9-1.2c-0.2-0.4-0.3-0.9-0.3-1.4c0-0.9,0.2-1.6,0.6-2.3
		c0.4-0.7,1-1.2,1.8-1.6c0.8-0.4,1.6-0.6,2.6-0.6c0.8,0,1.5,0.1,2.2,0.4c0.7,0.3,1.4,0.6,2.1,1V74.1z"/>
	<path class="st1" d="M119.5,76.2c0,1.1-0.2,2.1-0.6,3.1c-0.4,1-1,2-1.7,2.8c-0.8,0.8-1.7,1.5-2.8,2c-1.1,0.5-2.4,0.8-3.8,0.8
		c-0.1,0-0.4,0-1,0c-0.6,0-0.9-0.1-0.9-0.1l-1,7.1h-3.5l2.5-17.4c-0.5,0.3-0.9,0.7-1.2,1c-0.3,0.3-0.6,0.6-0.8,0.9
		c-0.2,0.3-0.4,0.5-0.5,0.7c-0.1,0.2-0.2,0.2-0.4,0.2s-0.2-0.1-0.2-0.2c0-0.3,0.1-0.8,0.4-1.4c0.3-0.6,0.7-1.2,1.2-1.9
		c0.5-0.6,1-1.2,1.7-1.7l0.7-5.3h3.5l-0.5,3.3c0.7-0.2,1.6-0.4,2.6-0.4c1.2,0,2.2,0.3,3.1,0.8c0.9,0.6,1.7,1.3,2.2,2.3
		C119.3,73.8,119.5,74.9,119.5,76.2z M116,76.2c0-1.2-0.3-2.2-1-2.9c-0.6-0.7-1.5-1.1-2.6-1.1c-0.4,0-0.7,0-1,0.1
		c-0.3,0.1-0.6,0.2-1,0.4l-1.3,9.2c0.1,0,0.3,0.1,0.5,0.1c0.3,0,0.5,0,0.8,0c1.1,0,2-0.2,2.8-0.7c0.8-0.5,1.5-1.2,1.9-2.1
		C115.8,78.3,116,77.3,116,76.2z"/>
	<path class="st1" d="M123.3,70h3.4l-1.1,8c-0.1,0.7-0.2,1.2-0.2,1.4c0,0.2,0,0.5,0,0.7c0,0.5,0.1,1,0.4,1.3
		c0.3,0.3,0.6,0.5,1.1,0.5c0.4,0,1-0.2,1.7-0.6c0.7-0.4,1.5-1.1,2.3-2.1l1.3-9.2h3.4l-2,14.4h-3.4l0.3-2.3c-0.8,0.8-1.7,1.5-2.5,1.9
		c-0.8,0.4-1.6,0.6-2.5,0.6c-0.8,0-1.4-0.2-2-0.5c-0.6-0.3-1-0.8-1.3-1.4c-0.3-0.6-0.4-1.3-0.4-2.1c0-0.7,0.1-1.6,0.2-2.6L123.3,70z
		"/>
	<path class="st1" d="M147.1,73.9c-0.2-0.3-0.5-0.5-0.7-0.6c-0.2-0.1-0.5-0.2-0.8-0.2c-1.1,0-2.1,1-3.1,3l-1.2,8.4h-3.4l2-14.4h3.5
		l-0.4,2.6c0.7-1,1.4-1.7,2-2.2c0.6-0.5,1.2-0.7,1.8-0.7c0.4,0,0.7,0.1,1,0.2c0.3,0.1,0.6,0.3,0.9,0.6L147.1,73.9z"/>
	<path class="st1" d="M155.8,69.6c1.1,0,2,0.3,2.9,0.8c0.8,0.5,1.5,1.2,2,2.1c0.5,0.9,0.7,2,0.7,3.1c0,0.5-0.1,1.1-0.2,1.7H152
		c-0.1,0.4-0.1,0.7-0.1,1c0,0.8,0.2,1.4,0.5,2c0.3,0.6,0.7,1,1.3,1.3c0.6,0.3,1.2,0.5,1.9,0.5c0.7,0,1.4-0.1,2.2-0.4
		c0.8-0.3,1.7-0.7,2.8-1.3l-0.6,3c-1.7,0.9-3.3,1.4-4.9,1.4c-1.3,0-2.5-0.3-3.4-0.9c-1-0.6-1.8-1.4-2.3-2.5
		c-0.5-1.1-0.8-2.3-0.8-3.7c0-1.5,0.3-2.9,1-4.1c0.6-1.3,1.5-2.3,2.6-3C153.3,70,154.5,69.6,155.8,69.6z M158.1,75.2v-0.2
		c0-0.8-0.2-1.5-0.6-2c-0.4-0.5-1-0.7-1.8-0.7c-1.5,0-2.6,1-3.2,3H158.1z"/>
	<path class="st1" d="M175.8,84.4h-3.4l1.1-8c0.1-0.6,0.1-1,0.2-1.3c0-0.3,0-0.5,0-0.9c0-0.5-0.1-1-0.4-1.3
		c-0.3-0.3-0.6-0.5-1.1-0.5c-0.5,0-1,0.2-1.7,0.6c-0.7,0.4-1.5,1.1-2.3,2.1l-1.3,9.2h-3.4l2-14.4h3.4l-0.3,2.3
		c0.8-0.8,1.7-1.5,2.5-1.9c0.8-0.4,1.6-0.6,2.5-0.6c0.8,0,1.5,0.2,2,0.5c0.6,0.4,1,0.8,1.3,1.5c0.3,0.6,0.4,1.3,0.4,2.1
		c0,0.2,0,0.4,0,0.5c0,0.2,0,0.3,0,0.5c0,0.2,0,0.4-0.1,0.6c0,0.2-0.1,0.5-0.1,0.9L175.8,84.4z"/>
</g>
<g>
	<path class="st0" d="M61.3,46.5h1.1v3.2c0.5-0.3,1-0.5,1.5-0.5c0.7,0,1.2,0.3,1.7,0.8c0.4,0.5,0.7,1.2,0.7,2c0,0.9-0.3,1.6-0.8,2.1
		c-0.5,0.5-1.2,0.8-2.1,0.8c-0.3,0-0.7,0-1.1-0.1c-0.4-0.1-0.7-0.2-0.9-0.3V46.5z M62.4,50.7v2.9c0.4,0.1,0.7,0.2,1.1,0.2
		c0.5,0,0.9-0.2,1.2-0.5c0.3-0.3,0.4-0.8,0.4-1.3c0-0.5-0.1-1-0.4-1.3c-0.3-0.3-0.6-0.5-1.1-0.5C63.2,50.2,62.8,50.4,62.4,50.7z"/>
	<path class="st0" d="M67.9,47.1c0.2,0,0.3,0.1,0.5,0.2c0.1,0.1,0.2,0.3,0.2,0.4c0,0.2-0.1,0.3-0.2,0.4s-0.3,0.2-0.5,0.2
		c-0.2,0-0.3-0.1-0.4-0.2c-0.1-0.1-0.2-0.3-0.2-0.4c0-0.2,0.1-0.3,0.2-0.4C67.6,47.1,67.8,47.1,67.9,47.1z M67.4,49.3h1.1v5.4h-1.1
		V49.3z"/>
	<path class="st0" d="M72.6,49.3c0.8,0,1.5,0.3,2,0.8s0.8,1.2,0.8,2c0,0.8-0.3,1.4-0.8,1.9c-0.6,0.5-1.2,0.8-2.1,0.8
		c-0.8,0-1.5-0.3-2-0.8c-0.5-0.5-0.8-1.2-0.8-2c0-0.8,0.3-1.4,0.8-2C71.1,49.6,71.8,49.3,72.6,49.3z M72.5,50.3
		c-0.5,0-0.9,0.2-1.3,0.5c-0.3,0.3-0.5,0.8-0.5,1.3c0,0.5,0.2,0.9,0.5,1.3c0.3,0.3,0.8,0.5,1.3,0.5c0.5,0,1-0.2,1.3-0.5
		c0.3-0.3,0.5-0.8,0.5-1.3c0-0.5-0.2-0.9-0.5-1.3C73.5,50.4,73.1,50.3,72.5,50.3z"/>
	<path class="st0" d="M76.4,51.2c0-0.6,0.2-1,0.6-1.4c0.4-0.3,1-0.5,1.7-0.5h2.2v0.8h-1.1c0.2,0.2,0.4,0.4,0.4,0.6
		c0.1,0.2,0.1,0.4,0.1,0.6c0,0.3-0.1,0.6-0.2,0.8c-0.2,0.3-0.4,0.5-0.6,0.6c-0.3,0.1-0.7,0.3-1.2,0.3c-0.4,0.1-0.6,0.2-0.6,0.4
		c0,0.1,0.1,0.2,0.2,0.3c0.2,0.1,0.4,0.2,0.8,0.2c0.7,0.1,1.1,0.3,1.3,0.3c0.2,0.1,0.4,0.2,0.5,0.4c0.3,0.3,0.4,0.6,0.4,1
		c0,0.5-0.2,0.9-0.7,1.2c-0.5,0.3-1.1,0.5-1.8,0.5c-0.8,0-1.4-0.2-1.8-0.5c-0.5-0.3-0.7-0.7-0.7-1.2c0-0.7,0.5-1.2,1.4-1.4
		c-0.4-0.2-0.5-0.5-0.5-0.7c0-0.2,0.1-0.3,0.2-0.5c0.2-0.1,0.4-0.2,0.6-0.3C76.8,52.5,76.4,52,76.4,51.2z M78.1,55
		c-0.4,0-0.7,0.1-0.9,0.2c-0.2,0.2-0.3,0.3-0.3,0.6c0,0.6,0.5,0.8,1.5,0.8c0.5,0,0.8-0.1,1.1-0.2c0.3-0.1,0.4-0.3,0.4-0.6
		c0-0.2-0.2-0.5-0.5-0.6C79.1,55.1,78.6,55,78.1,55z M78.4,50.3c-0.3,0-0.5,0.1-0.7,0.3s-0.3,0.4-0.3,0.7c0,0.3,0.1,0.5,0.3,0.7
		c0.2,0.2,0.5,0.3,0.8,0.3c0.3,0,0.6-0.1,0.8-0.3c0.2-0.2,0.3-0.4,0.3-0.7c0-0.3-0.1-0.5-0.3-0.7S78.7,50.3,78.4,50.3z"/>
	<path class="st0" d="M82.9,49.3v1.2l0.1-0.1c0.5-0.8,1-1.2,1.5-1.2c0.4,0,0.8,0.2,1.3,0.6l-0.6,0.9c-0.4-0.4-0.7-0.5-1-0.5
		c-0.3,0-0.6,0.2-0.9,0.5c-0.3,0.3-0.4,0.7-0.4,1.2v2.8h-1.1v-5.4H82.9z"/>
	<path class="st0" d="M89.9,51.5v2.3c0,0.2,0.1,0.3,0.2,0.3c0.1,0,0.3-0.1,0.6-0.3v0.7c-0.2,0.2-0.4,0.3-0.6,0.3
		c-0.1,0.1-0.3,0.1-0.5,0.1c-0.5,0-0.7-0.2-0.8-0.5c-0.5,0.4-0.9,0.5-1.4,0.5c-0.4,0-0.7-0.1-0.9-0.4c-0.2-0.2-0.4-0.6-0.4-0.9
		c0-0.3,0.1-0.6,0.4-0.9c0.2-0.3,0.6-0.5,1-0.6l1.4-0.5v-0.3c0-0.6-0.3-1-1-1c-0.6,0-1.1,0.3-1.7,0.9V50c0.4-0.5,1-0.7,1.8-0.7
		c0.6,0,1,0.2,1.4,0.5c0.1,0.1,0.2,0.2,0.3,0.4c0.1,0.2,0.2,0.3,0.2,0.5C89.9,50.7,89.9,51,89.9,51.5z M88.8,53.7v-1.6l-0.7,0.3
		c-0.4,0.1-0.6,0.3-0.8,0.4c-0.2,0.1-0.2,0.3-0.2,0.5c0,0.2,0.1,0.4,0.2,0.5c0.1,0.1,0.3,0.2,0.6,0.2C88.2,54.1,88.6,53.9,88.8,53.7
		z"/>
	<path class="st0" d="M91.4,57.5v-8.1h1.9c1,0,1.7,0.2,2.2,0.7c0.5,0.5,0.8,1.1,0.8,2c0,0.8-0.3,1.5-0.8,2c-0.5,0.5-1.1,0.8-1.9,0.8
		c-0.3,0-0.7-0.1-1.1-0.2v2.9H91.4z M93.3,50.3h-0.8v3.3c0.3,0.2,0.7,0.3,1,0.3c0.5,0,0.9-0.2,1.2-0.5c0.3-0.3,0.5-0.8,0.5-1.3
		c0-0.4-0.1-0.7-0.2-0.9c-0.1-0.3-0.4-0.5-0.6-0.6C94.2,50.4,93.8,50.3,93.3,50.3z"/>
	<path class="st0" d="M97.5,46.5h1.1V50c0.4-0.5,1-0.8,1.7-0.8c0.4,0,0.7,0.1,1,0.3c0.3,0.2,0.5,0.4,0.6,0.7
		c0.1,0.3,0.2,0.8,0.2,1.4v3.1H101v-3.3c0-0.4-0.1-0.7-0.3-1c-0.2-0.2-0.4-0.4-0.8-0.4c-0.2,0-0.5,0.1-0.7,0.2
		c-0.2,0.1-0.4,0.3-0.7,0.6v3.9h-1.1V46.5z"/>
	<path class="st0" d="M104.1,47.1c0.2,0,0.3,0.1,0.5,0.2c0.1,0.1,0.2,0.3,0.2,0.4c0,0.2-0.1,0.3-0.2,0.4s-0.3,0.2-0.5,0.2
		c-0.2,0-0.3-0.1-0.4-0.2c-0.1-0.1-0.2-0.3-0.2-0.4c0-0.2,0.1-0.3,0.2-0.4C103.8,47.1,103.9,47.1,104.1,47.1z M103.5,49.3h1.1v5.4
		h-1.1V49.3z"/>
	<path class="st0" d="M110.7,52.1h-3.8c0,0.5,0.2,0.9,0.5,1.2c0.3,0.3,0.7,0.5,1.2,0.5c0.7,0,1.4-0.2,1.9-0.7v1
		c-0.3,0.2-0.7,0.4-1,0.5c-0.3,0.1-0.7,0.1-1.1,0.1c-0.6,0-1.1-0.1-1.4-0.4c-0.4-0.2-0.7-0.6-0.9-1c-0.2-0.4-0.3-0.9-0.3-1.4
		c0-0.8,0.2-1.5,0.7-2c0.5-0.5,1.1-0.8,1.8-0.8c0.7,0,1.3,0.2,1.7,0.8c0.4,0.5,0.6,1.2,0.6,2V52.1z M107,51.5h2.7
		c0-0.4-0.2-0.8-0.4-1c-0.2-0.2-0.5-0.3-0.9-0.3s-0.7,0.1-0.9,0.3C107.2,50.7,107,51.1,107,51.5z"/>
	<path class="st0" d="M119.8,52.1H116c0,0.5,0.2,0.9,0.5,1.2c0.3,0.3,0.7,0.5,1.2,0.5c0.7,0,1.4-0.2,1.9-0.7v1
		c-0.3,0.2-0.7,0.4-1,0.5c-0.3,0.1-0.7,0.1-1.1,0.1c-0.6,0-1.1-0.1-1.4-0.4c-0.4-0.2-0.7-0.6-0.9-1c-0.2-0.4-0.3-0.9-0.3-1.4
		c0-0.8,0.2-1.5,0.7-2c0.5-0.5,1.1-0.8,1.8-0.8c0.7,0,1.3,0.2,1.7,0.8c0.4,0.5,0.6,1.2,0.6,2V52.1z M116.1,51.5h2.7
		c0-0.4-0.2-0.8-0.4-1s-0.5-0.3-0.9-0.3s-0.7,0.1-0.9,0.3C116.3,50.7,116.1,51.1,116.1,51.5z"/>
	<path class="st0" d="M121.5,47.1c0.2,0,0.3,0.1,0.5,0.2c0.1,0.1,0.2,0.3,0.2,0.4c0,0.2-0.1,0.3-0.2,0.4s-0.3,0.2-0.5,0.2
		c-0.2,0-0.3-0.1-0.4-0.2c-0.1-0.1-0.2-0.3-0.2-0.4c0-0.2,0.1-0.3,0.2-0.4C121.2,47.1,121.4,47.1,121.5,47.1z M121,49.3h1.1v5.4H121
		V49.3z"/>
	<path class="st0" d="M124.7,49.3V50c0.5-0.5,1-0.8,1.6-0.8c0.3,0,0.6,0.1,0.9,0.3c0.3,0.2,0.5,0.4,0.7,0.7c0.2,0.3,0.2,0.8,0.2,1.4
		v3.1H127v-3.1c0-0.6-0.1-0.9-0.3-1.2c-0.2-0.2-0.4-0.4-0.8-0.4c-0.5,0-0.9,0.3-1.3,0.8v3.8h-1.1v-5.4H124.7z"/>
	<path class="st0" d="M134.2,52.1h-3.8c0,0.5,0.2,0.9,0.5,1.2c0.3,0.3,0.7,0.5,1.2,0.5c0.7,0,1.4-0.2,1.9-0.7v1
		c-0.3,0.2-0.7,0.4-1,0.5c-0.3,0.1-0.7,0.1-1.1,0.1c-0.6,0-1.1-0.1-1.4-0.4c-0.4-0.2-0.7-0.6-0.9-1s-0.3-0.9-0.3-1.4
		c0-0.8,0.2-1.5,0.7-2c0.5-0.5,1.1-0.8,1.8-0.8c0.7,0,1.3,0.2,1.7,0.8c0.4,0.5,0.6,1.2,0.6,2V52.1z M130.4,51.5h2.7
		c0-0.4-0.2-0.8-0.4-1c-0.2-0.2-0.5-0.3-0.9-0.3c-0.4,0-0.7,0.1-0.9,0.3C130.7,50.7,130.5,51.1,130.4,51.5z"/>
	<path class="st0" d="M136.5,49.3v1.2l0.1-0.1c0.5-0.8,1-1.2,1.5-1.2c0.4,0,0.8,0.2,1.3,0.6l-0.6,0.9c-0.4-0.4-0.7-0.5-1-0.5
		c-0.3,0-0.6,0.2-0.9,0.5c-0.3,0.3-0.4,0.7-0.4,1.2v2.8h-1.1v-5.4H136.5z"/>
	<path class="st0" d="M143.5,46.5h1.1v8.2h-1.1V46.5z"/>
	<path class="st0" d="M149.5,51.5v2.3c0,0.2,0.1,0.3,0.2,0.3c0.1,0,0.3-0.1,0.6-0.3v0.7c-0.2,0.2-0.4,0.3-0.6,0.3
		c-0.1,0.1-0.3,0.1-0.5,0.1c-0.5,0-0.7-0.2-0.8-0.5c-0.5,0.4-0.9,0.5-1.4,0.5c-0.4,0-0.7-0.1-0.9-0.4c-0.2-0.2-0.4-0.6-0.4-0.9
		c0-0.3,0.1-0.6,0.4-0.9c0.2-0.3,0.6-0.5,1-0.6l1.4-0.5v-0.3c0-0.6-0.3-1-1-1c-0.6,0-1.1,0.3-1.7,0.9V50c0.4-0.5,1-0.7,1.8-0.7
		c0.6,0,1,0.2,1.4,0.5c0.1,0.1,0.2,0.2,0.3,0.4c0.1,0.2,0.2,0.3,0.2,0.5C149.4,50.7,149.5,51,149.5,51.5z M148.4,53.7v-1.6l-0.7,0.3
		c-0.4,0.1-0.6,0.3-0.8,0.4c-0.2,0.1-0.2,0.3-0.2,0.5c0,0.2,0.1,0.4,0.2,0.5c0.1,0.1,0.3,0.2,0.6,0.2
		C147.8,54.1,148.1,53.9,148.4,53.7z"/>
	<path class="st0" d="M152.3,49.3V50c0.5-0.5,1-0.8,1.6-0.8c0.3,0,0.6,0.1,0.9,0.3c0.3,0.2,0.5,0.4,0.7,0.7s0.2,0.8,0.2,1.4v3.1
		h-1.1v-3.1c0-0.6-0.1-0.9-0.3-1.2c-0.2-0.2-0.4-0.4-0.8-0.4c-0.5,0-0.9,0.3-1.3,0.8v3.8h-1.1v-5.4H152.3z"/>
	<path class="st0" d="M160.8,46.5h1.1v8.2h-2.3c-0.8,0-1.4-0.3-1.9-0.8c-0.5-0.5-0.7-1.2-0.7-2c0-0.8,0.2-1.4,0.7-2
		c0.5-0.5,1.1-0.8,1.9-0.8c0.4,0,0.8,0.1,1.2,0.2V46.5z M160.8,53.8v-3.4c-0.3-0.2-0.7-0.3-1-0.3c-0.5,0-1,0.2-1.3,0.5
		c-0.3,0.3-0.5,0.8-0.5,1.4c0,0.6,0.1,1,0.4,1.3c0.2,0.2,0.3,0.3,0.5,0.4s0.5,0.1,1,0.1H160.8z"/>
	<path class="st0" d="M163,54.3v-1.1c0.3,0.2,0.6,0.4,0.9,0.5c0.3,0.1,0.6,0.2,0.8,0.2c0.2,0,0.4-0.1,0.6-0.2
		c0.2-0.1,0.2-0.2,0.2-0.4c0-0.2-0.1-0.3-0.2-0.4c-0.1-0.1-0.3-0.3-0.7-0.4c-0.7-0.4-1.1-0.7-1.4-1c-0.2-0.3-0.3-0.6-0.3-0.9
		c0-0.4,0.2-0.8,0.5-1c0.3-0.3,0.7-0.4,1.2-0.4c0.5,0,1.1,0.1,1.6,0.4v1.1c-0.6-0.4-1.2-0.6-1.6-0.6c-0.2,0-0.4,0-0.5,0.1
		c-0.1,0.1-0.2,0.2-0.2,0.3c0,0.1,0.1,0.2,0.2,0.4c0.1,0.1,0.3,0.2,0.6,0.4l0.4,0.2c0.9,0.5,1.3,1.1,1.3,1.7c0,0.4-0.2,0.8-0.5,1.1
		c-0.3,0.3-0.8,0.4-1.3,0.4c-0.3,0-0.6,0-0.9-0.1C163.7,54.6,163.4,54.5,163,54.3z"/>
	<path class="st0" d="M172,53.5v1.1c-0.5,0.2-1.1,0.3-1.6,0.3c-0.8,0-1.5-0.2-2-0.8c-0.5-0.5-0.8-1.2-0.8-2c0-0.8,0.2-1.5,0.7-2.1
		c0.5-0.5,1.1-0.8,1.9-0.8c0.3,0,0.5,0,0.7,0.1s0.5,0.2,0.8,0.3v1.1c-0.5-0.3-1-0.5-1.5-0.5c-0.5,0-0.9,0.2-1.2,0.5
		c-0.3,0.3-0.5,0.8-0.5,1.3c0,0.6,0.2,1,0.5,1.3s0.8,0.5,1.4,0.5C171,53.8,171.4,53.7,172,53.5z"/>
	<path class="st0" d="M173.2,46.5h1.1V50c0.4-0.5,1-0.8,1.7-0.8c0.4,0,0.7,0.1,1,0.3c0.3,0.2,0.5,0.4,0.6,0.7s0.2,0.8,0.2,1.4v3.1
		h-1.1v-3.3c0-0.4-0.1-0.7-0.3-1c-0.2-0.2-0.4-0.4-0.8-0.4c-0.2,0-0.5,0.1-0.7,0.2c-0.2,0.1-0.4,0.3-0.7,0.6v3.9h-1.1V46.5z"/>
	<path class="st0" d="M182.6,51.5v2.3c0,0.2,0.1,0.3,0.2,0.3c0.1,0,0.3-0.1,0.6-0.3v0.7c-0.2,0.2-0.4,0.3-0.6,0.3
		c-0.1,0.1-0.3,0.1-0.5,0.1c-0.5,0-0.7-0.2-0.8-0.5c-0.5,0.4-0.9,0.5-1.4,0.5c-0.4,0-0.7-0.1-0.9-0.4c-0.2-0.2-0.4-0.6-0.4-0.9
		c0-0.3,0.1-0.6,0.4-0.9c0.2-0.3,0.6-0.5,1-0.6l1.4-0.5v-0.3c0-0.6-0.3-1-1-1c-0.6,0-1.1,0.3-1.7,0.9V50c0.4-0.5,1-0.7,1.8-0.7
		c0.6,0,1,0.2,1.4,0.5c0.1,0.1,0.2,0.2,0.3,0.4c0.1,0.2,0.2,0.3,0.2,0.5C182.6,50.7,182.6,51,182.6,51.5z M181.5,53.7v-1.6l-0.7,0.3
		c-0.4,0.1-0.6,0.3-0.8,0.4s-0.2,0.3-0.2,0.5c0,0.2,0.1,0.4,0.2,0.5c0.1,0.1,0.3,0.2,0.6,0.2C180.9,54.1,181.2,53.9,181.5,53.7z"/>
	<path class="st0" d="M184.4,49.3V49c0-0.9,0.2-1.5,0.6-1.9c0.4-0.4,0.8-0.6,1.3-0.6c0.2,0,0.5,0,0.8,0.1v1
		c-0.2-0.1-0.3-0.1-0.5-0.1c-0.4,0-0.7,0.1-0.9,0.3c-0.2,0.2-0.2,0.6-0.2,1.2v0.3h1v1h-1v4.4h-1.1v-4.4h-0.8v-1H184.4z"/>
	<path class="st0" d="M186.5,50.2l2-2v1.1h1.7v1h-1.7v2.6c0,0.6,0.3,0.9,0.8,0.9c0.4,0,0.8-0.1,1.2-0.4v1c-0.4,0.2-0.9,0.3-1.3,0.3
		c-0.5,0-0.9-0.1-1.2-0.4c-0.1-0.1-0.2-0.2-0.3-0.3c-0.1-0.1-0.1-0.2-0.2-0.4c0-0.2-0.1-0.5-0.1-1v-2.4h-0.9V50.2z"/>
</g>
</svg>
