<?xml version="1.0" encoding="utf-8"?>
<!-- Generator: Adobe Illustrator 21.1.0, SVG Export Plug-In . SVG Version: 6.00 Build 0)  -->
<svg version="1.1" id="Laag_1" xmlns="http://www.w3.org/2000/svg" xmlns:xlink="http://www.w3.org/1999/xlink" x="0px" y="0px"
	 viewBox="0 0 212 108" style="enable-background:new 0 0 212 108;" xml:space="preserve">
<style type="text/css">
	.st0{fill:#EC6608;}
	.st1{fill:#005597;}
</style>
<g>
	<path class="st0" d="M43.4,48.4c1-0.2,2-0.6,2.9-1c3.8-1.6,6.7-4.3,8-6.9c-0.6,2.9-2.7,5.8-5.8,7.9c-2.1,1.4-4.4,2.2-6.6,2.5
		c-1.4,2.1-2.8,4-4.4,5.8c3.7-1.8,6.8-3.4,10.3-3.7c2.4-0.2,6,0.1,6.6-2.2c0.3-1.3-0.9-2.1-0.7-3.4c0.2-1.2,1-1.5,1.5-2
		c1.1-1-0.3-1.3-0.2-1.9c0.1-0.6,1.8,0.1,1.1-1.5c-0.8-1.6-0.7-2.5-0.1-3.1c1.3-1.1,5.1,0.6,2.4-4.7c-1.2-2.4-2-3.3-2.5-5.9
		c-0.2-1,0.8-2.2,1.2-3c1.3-2.8-3.4-6.9-6.5-11.9c0.5,4.4,0.5,9.3-0.2,14.3c2.5-1.7,4.3-4,4.8-6.1c-0.1,2.2-1.2,4.7-3.3,6.6
		c-0.6,0.6-1.2,1-1.8,1.4c-0.2,1.1-0.5,2.2-0.7,3.3c-0.4,1.7-0.8,3.3-1.3,4.9c0.5-0.2,1-0.4,1.5-0.7c3-1.6,5.2-4,6.1-6.3
		c-0.3,2.4-1.8,5-4.2,7c-1.3,1-2.7,1.7-4.1,2.2C46.1,43.1,44.9,45.9,43.4,48.4L43.4,48.4z"/>
	<path class="st1" d="M41.1,40.6c0.3-0.2,1-1.1,1.2-1.3l-2.7-4.1c-0.1-0.2-1.6-2.2-1.7-2.4c-0.3-0.4-0.3-1-0.6-1.4
		c-1-1.4-0.9-2.6-1.2-4.3c-0.4,1.3-0.5,2.7-0.1,4.1l0.3,1.5l0.6,1.5c0.5,0.7,1.1,1.1,1.6,1.8c0.4,0.6,0.7,0.8,1.2,1.5
		c0.6,0.9,0.3,0.5,0.9,1.4C40.8,38.8,40.9,40.5,41.1,40.6L41.1,40.6z"/>
	<path class="st1" d="M43.5,21.2c-0.2,0.6-0.7,2.5-0.6,3.2l0.4,1.6c0.8,1.3,1.6,1.4,2.4,2.7c0.1,0.2,0.2,1.5,0.2,1.4
		c0-0.2,0.9-1.7,1-1.9c-0.3-0.3-0.4-0.5-0.7-0.8c-0.3-0.3-0.4-0.5-0.7-0.7c-0.2-0.2-0.3-0.4-0.5-0.7l-1-1.8
		C43.6,23.4,43.7,22,43.5,21.2L43.5,21.2z"/>
	<path class="st1" d="M38,50.2c-0.4-0.8-0.7-1.4-1.3-2.2l-2.5-3.5c-1.6-2.7-1.5-5.4-2.2-8.3c0,0.6-0.5,2.2-0.6,2.8
		c-0.1,0.5-0.1,0.9,0,1.5c0.1,0.6,0.3,0.7,0.4,1.3c0.2,0.8,0,1.5,0.4,2.2c0.3,0.7-0.2,1.1,0.4,1.7c0.7,0.8,1.6,1.1,2.3,1.8
		c0.8,0.8,0.5,1,1,2c0.3,0.7,0.3,2,0.6,2.7l0.8-0.8c0.2-0.4,0.1-0.5,0.4-0.8C37.8,50.6,38,50.3,38,50.2L38,50.2z"/>
</g>
<g>
	<path d="M34.5,83.5H31l0.2-1.5l0,0l0,0c-1.3,1.2-2.6,1.8-4,1.8c-0.9,0-1.7-0.3-2.5-0.8s-1.3-1.2-1.8-2.1c-0.4-0.9-0.6-1.9-0.6-3
		c0-1.8,0.4-3.5,1.3-4.9c0.8-1.4,2-2.5,3.5-3.2c1.5-0.7,3.3-1.1,5.3-1.1c1.4,0,2.7,0.2,4.1,0.5L34.5,83.5z M32.7,71.6
		c-0.3,0-0.6,0-0.9,0c-0.9,0-1.7,0.1-2.4,0.4c-0.7,0.3-1.3,0.7-1.8,1.2c-0.5,0.5-0.9,1.2-1.3,2c-0.3,0.8-0.5,1.7-0.5,2.5
		c0,1,0.2,1.9,0.7,2.5c0.5,0.6,1.1,0.9,1.8,0.9c0.5,0,1-0.2,1.6-0.5c0.6-0.3,1.1-0.8,1.7-1.3L32.7,71.6z"/>
	<path d="M45.1,61.7l-3.1,21.8h-3.5l3.1-21.8H45.1z"/>
	<path d="M59.8,75.3c0,1.6-0.3,3.1-1,4.4c-0.6,1.3-1.5,2.4-2.7,3.1c-1.2,0.8-2.4,1.1-3.8,1.1c-1.2,0-2.3-0.3-3.3-0.8
		c-1-0.6-1.7-1.4-2.2-2.4c-0.5-1-0.8-2.2-0.8-3.5c0-1.6,0.3-3,1-4.3c0.7-1.3,1.6-2.4,2.8-3.1c1.2-0.7,2.4-1.1,3.8-1.1
		c1.2,0,2.3,0.3,3.2,0.8c0.9,0.5,1.7,1.3,2.2,2.3C59.5,72.8,59.8,74,59.8,75.3z M56.2,75.1c0-1.1-0.2-1.9-0.7-2.6
		c-0.5-0.7-1.2-1-2-1c-0.8,0-1.4,0.3-2,0.8c-0.6,0.5-1.1,1.3-1.4,2.2c-0.3,1-0.5,1.9-0.5,2.9c0,0.7,0.1,1.3,0.4,1.8
		c0.2,0.5,0.6,1,1,1.3c0.4,0.3,0.9,0.4,1.4,0.4c0.7,0,1.4-0.3,2-0.8c0.6-0.5,1.1-1.2,1.4-2.1C56,77.2,56.2,76.2,56.2,75.1z"/>
	<path d="M74.1,83.5h-3.4l1.1-8c0.1-0.6,0.1-1,0.2-1.3c0-0.3,0-0.5,0-0.9c0-0.5-0.1-1-0.4-1.3c-0.3-0.3-0.6-0.5-1.1-0.5
		c-0.5,0-1,0.2-1.7,0.6c-0.7,0.4-1.5,1.1-2.3,2.1l-1.3,9.2h-3.4l2-14.4h3.4l-0.3,2.3c0.8-0.8,1.7-1.5,2.5-1.9
		c0.8-0.4,1.6-0.6,2.5-0.6c0.8,0,1.5,0.2,2,0.5c0.6,0.4,1,0.8,1.3,1.5c0.3,0.6,0.4,1.3,0.4,2.1c0,0.2,0,0.4,0,0.5c0,0.2,0,0.3,0,0.5
		c0,0.2,0,0.4-0.1,0.6c0,0.2-0.1,0.5-0.1,0.9L74.1,83.5z"/>
	<path d="M92.2,69.1l-0.3,2.6h-2.6c0.3,0.5,0.5,0.9,0.6,1.3c0.1,0.4,0.2,0.8,0.2,1.3c0,1.4-0.4,2.5-1.2,3.5s-1.9,1.5-3.4,1.8
		c-0.5,0.1-0.9,0.2-1.4,0.2c-0.5,0.1-0.9,0.1-1.2,0.2c-0.4,0.1-0.7,0.2-0.9,0.4c-0.2,0.2-0.3,0.4-0.3,0.6c0,0.2,0.1,0.4,0.4,0.5
		c0.2,0.1,0.6,0.2,1,0.4c0.4,0.1,0.8,0.2,1.4,0.3c2,0.4,3.4,0.9,4.3,1.6c0.9,0.7,1.3,1.6,1.3,2.8c0,0.9-0.3,1.7-0.8,2.3
		c-0.5,0.7-1.3,1.2-2.3,1.5c-1,0.4-2.2,0.5-3.5,0.5c-1.3,0-2.5-0.2-3.5-0.5c-1-0.3-1.7-0.7-2.3-1.3c-0.5-0.6-0.8-1.2-0.8-1.9
		c0-0.7,0.3-1.3,1-1.8c0.6-0.5,1.6-0.9,2.9-1.3v-0.1c-1.5-0.6-2.3-1.5-2.3-2.6c0-0.4,0.1-0.8,0.4-1.1c0.2-0.4,0.6-0.7,1-0.9
		c0.4-0.2,0.9-0.4,1.5-0.6c-1.7-0.9-2.6-2.3-2.6-4.2c0-1,0.3-2,0.8-2.8c0.5-0.9,1.2-1.6,2.1-2c0.9-0.5,1.9-0.7,3-0.7H92.2z
		 M86.7,86.9c0-0.4-0.3-0.7-0.8-1c-0.5-0.3-1.4-0.6-2.7-0.9c-1,0.1-1.8,0.4-2.4,0.7c-0.6,0.3-0.9,0.7-0.9,1.2c0,0.5,0.3,0.9,0.9,1.2
		c0.6,0.3,1.5,0.4,2.7,0.4C85.6,88.5,86.7,88,86.7,86.9z M86.9,74.1c0-0.8-0.2-1.4-0.6-1.8c-0.4-0.5-1-0.7-1.7-0.7
		c-0.5,0-0.9,0.1-1.3,0.4c-0.4,0.3-0.7,0.7-0.9,1.2c-0.2,0.5-0.3,1.1-0.3,1.7c0,0.7,0.2,1.3,0.6,1.8c0.4,0.5,1,0.7,1.7,0.7
		c0.5,0,1-0.1,1.4-0.4c0.4-0.3,0.7-0.7,0.9-1.2C86.8,75.3,86.9,74.7,86.9,74.1z"/>
	<path class="st1" d="M111.9,69.1l-0.4,2.6h-3l-1.1,6.2c-0.1,0.7-0.2,1.3-0.2,1.7c0,0.3,0.1,0.6,0.4,0.9c0.2,0.2,0.6,0.4,1,0.4
		c0.5,0,0.9-0.1,1.3-0.2c0.4-0.1,0.9-0.4,1.4-0.6l-0.1,3.2c-0.4,0.2-1,0.4-1.6,0.6c-0.6,0.1-1.2,0.2-1.9,0.2c-0.8,0-1.5-0.1-2.1-0.4
		c-0.6-0.3-1.1-0.7-1.4-1.2c-0.3-0.5-0.5-1.1-0.5-1.7c0-0.6,0.1-1.7,0.4-3.2l1-5.7h-2.7l0.4-2.6h2.8l0.5-3h3.5l-0.5,3H111.9z"/>
	<path class="st1" d="M123.4,73c-0.2-0.3-0.5-0.5-0.7-0.6c-0.2-0.1-0.5-0.2-0.8-0.2c-1.1,0-2.1,1-3.1,3l-1.2,8.4h-3.4l2-14.4h3.5
		l-0.4,2.6c0.7-1,1.4-1.7,2-2.2c0.6-0.5,1.2-0.7,1.8-0.7c0.4,0,0.7,0.1,1,0.2c0.3,0.1,0.6,0.3,0.9,0.6L123.4,73z"/>
	<path class="st1" d="M137.8,83.5h-3.5l0.2-1.5l0,0l0,0c-1.3,1.2-2.6,1.8-4,1.8c-0.9,0-1.7-0.3-2.5-0.8c-0.8-0.5-1.3-1.2-1.8-2.1
		c-0.4-0.9-0.6-1.9-0.6-3c0-1.8,0.4-3.5,1.3-4.9c0.8-1.4,2-2.5,3.5-3.2c1.5-0.7,3.3-1.1,5.3-1.1c1.4,0,2.7,0.2,4.1,0.5L137.8,83.5z
		 M136,71.6c-0.3,0-0.6,0-0.9,0c-0.9,0-1.7,0.1-2.4,0.4c-0.7,0.3-1.3,0.7-1.8,1.2c-0.5,0.5-0.9,1.2-1.3,2c-0.3,0.8-0.5,1.7-0.5,2.5
		c0,1,0.2,1.9,0.7,2.5c0.5,0.6,1.1,0.9,1.8,0.9c0.5,0,1-0.2,1.6-0.5c0.6-0.3,1.1-0.8,1.7-1.3L136,71.6z"/>
	<path class="st1" d="M154.9,72.2c-0.4-0.1-0.9-0.3-1.3-0.3c-0.4-0.1-0.9-0.1-1.5-0.1c-1,0-2,0.2-2.8,0.7c-0.9,0.5-1.5,1.1-2.1,2
		c-0.5,0.8-0.8,1.7-0.8,2.7c0,1.2,0.3,2.2,1,2.9c0.7,0.7,1.6,1,2.9,1c0.7,0,1.4-0.1,1.9-0.2c0.6-0.2,1.3-0.4,2.1-0.8l-0.4,3.2
		c-1.4,0.5-2.8,0.8-4.2,0.8c-1.3,0-2.5-0.3-3.6-0.8c-1-0.6-1.8-1.4-2.4-2.4c-0.6-1-0.9-2.2-0.9-3.6c0-1.5,0.4-2.9,1.2-4.2
		c0.8-1.3,1.9-2.3,3.4-3c1.4-0.7,3-1.1,4.7-1.1c0.5,0,1.1,0,1.6,0.1c0.6,0.1,1.1,0.2,1.5,0.3L154.9,72.2z"/>
	<path class="st1" d="M164.7,68.7c1.1,0,2,0.3,2.9,0.8c0.8,0.5,1.5,1.2,2,2.1c0.5,0.9,0.7,2,0.7,3.1c0,0.5-0.1,1.1-0.2,1.7h-9.2
		c-0.1,0.4-0.1,0.7-0.1,1c0,0.8,0.2,1.4,0.5,2c0.3,0.6,0.7,1,1.3,1.3c0.6,0.3,1.2,0.5,1.9,0.5c0.7,0,1.4-0.1,2.2-0.4
		c0.8-0.3,1.7-0.7,2.8-1.3l-0.6,3c-1.7,0.9-3.3,1.4-4.9,1.4c-1.3,0-2.5-0.3-3.4-0.9c-1-0.6-1.8-1.4-2.3-2.5
		c-0.5-1.1-0.8-2.3-0.8-3.7c0-1.5,0.3-2.9,1-4.1c0.6-1.3,1.5-2.3,2.6-3C162.1,69.1,163.4,68.7,164.7,68.7z M166.9,74.3V74
		c0-0.8-0.2-1.5-0.6-2c-0.4-0.5-1-0.7-1.8-0.7c-1.5,0-2.6,1-3.2,3H166.9z"/>
	<path class="st1" d="M183,73.2c-1.1-0.6-1.9-1-2.5-1.2c-0.6-0.2-1.1-0.3-1.6-0.3c-0.6,0-1,0.1-1.3,0.3c-0.3,0.2-0.4,0.5-0.4,1
		c0,0.2,0.1,0.4,0.3,0.7c0.2,0.2,0.6,0.5,1,0.8l0.8,0.6c0.9,0.7,1.6,1.2,1.9,1.6c0.4,0.4,0.6,0.8,0.9,1.3c0.2,0.5,0.3,1,0.3,1.5
		c0,0.8-0.2,1.6-0.6,2.3c-0.4,0.7-1,1.2-1.8,1.6c-0.8,0.4-1.6,0.6-2.5,0.6c-0.9,0-1.8-0.1-2.6-0.3c-0.9-0.2-1.7-0.6-2.4-1.2l0.6-3
		c0.8,0.5,1.5,0.9,2.2,1.2c0.7,0.3,1.4,0.4,2,0.4c0.5,0,0.9-0.1,1.2-0.4c0.3-0.2,0.5-0.5,0.5-0.9c0-0.3-0.1-0.6-0.4-1
		c-0.3-0.3-0.7-0.7-1.2-1.1c-1.2-0.9-2.1-1.5-2.5-1.9c-0.4-0.4-0.7-0.8-0.9-1.2c-0.2-0.4-0.3-0.9-0.3-1.4c0-0.9,0.2-1.6,0.6-2.3
		c0.4-0.7,1-1.2,1.8-1.6c0.8-0.4,1.6-0.6,2.6-0.6c0.8,0,1.5,0.1,2.2,0.4c0.7,0.3,1.4,0.6,2.1,1V73.2z"/>
</g>
<g>
	<path class="st0" d="M71.9,44H73v3.2c0.5-0.3,1-0.5,1.5-0.5c0.7,0,1.2,0.3,1.7,0.8c0.4,0.5,0.7,1.2,0.7,2c0,0.9-0.3,1.6-0.8,2.1
		c-0.5,0.5-1.2,0.8-2.1,0.8c-0.3,0-0.7,0-1.1-0.1c-0.4-0.1-0.7-0.2-0.9-0.3V44z M73,48.2v2.9c0.4,0.1,0.7,0.2,1.1,0.2
		c0.5,0,0.9-0.2,1.2-0.5c0.3-0.3,0.4-0.8,0.4-1.3c0-0.5-0.1-1-0.4-1.3c-0.3-0.3-0.6-0.5-1.1-0.5C73.8,47.7,73.4,47.9,73,48.2z"/>
	<path class="st0" d="M78.5,44.5c0.2,0,0.3,0.1,0.5,0.2c0.1,0.1,0.2,0.3,0.2,0.4c0,0.2-0.1,0.3-0.2,0.4s-0.3,0.2-0.5,0.2
		c-0.2,0-0.3-0.1-0.4-0.2c-0.1-0.1-0.2-0.3-0.2-0.4c0-0.2,0.1-0.3,0.2-0.4C78.2,44.6,78.4,44.5,78.5,44.5z M78,46.8h1.1v5.4H78V46.8
		z"/>
	<path class="st0" d="M83.2,46.8c0.8,0,1.5,0.3,2,0.8c0.5,0.5,0.8,1.2,0.8,2c0,0.8-0.3,1.4-0.8,1.9c-0.6,0.5-1.2,0.8-2.1,0.8
		c-0.8,0-1.5-0.3-2-0.8c-0.5-0.5-0.8-1.2-0.8-2c0-0.8,0.3-1.4,0.8-2C81.7,47.1,82.4,46.8,83.2,46.8z M83.1,47.8
		c-0.5,0-0.9,0.2-1.3,0.5c-0.3,0.3-0.5,0.8-0.5,1.3c0,0.5,0.2,0.9,0.5,1.3c0.3,0.3,0.8,0.5,1.3,0.5c0.5,0,1-0.2,1.3-0.5
		c0.3-0.3,0.5-0.8,0.5-1.3c0-0.5-0.2-0.9-0.5-1.3C84.1,47.9,83.7,47.8,83.1,47.8z"/>
	<path class="st0" d="M87,48.7c0-0.6,0.2-1,0.6-1.4c0.4-0.3,1-0.5,1.7-0.5h2.2v0.8h-1.1c0.2,0.2,0.4,0.4,0.4,0.6
		c0.1,0.2,0.1,0.4,0.1,0.6c0,0.3-0.1,0.6-0.2,0.8c-0.2,0.3-0.4,0.5-0.6,0.6c-0.3,0.1-0.7,0.3-1.2,0.3c-0.4,0.1-0.6,0.2-0.6,0.4
		c0,0.1,0.1,0.2,0.2,0.3c0.2,0.1,0.4,0.2,0.8,0.2c0.7,0.1,1.1,0.3,1.3,0.3c0.2,0.1,0.4,0.2,0.5,0.4c0.3,0.3,0.4,0.6,0.4,1
		c0,0.5-0.2,0.9-0.7,1.2c-0.5,0.3-1.1,0.5-1.8,0.5c-0.8,0-1.4-0.2-1.8-0.5c-0.5-0.3-0.7-0.7-0.7-1.2c0-0.7,0.5-1.2,1.4-1.4
		c-0.4-0.2-0.5-0.5-0.5-0.7c0-0.2,0.1-0.3,0.2-0.5c0.2-0.1,0.4-0.2,0.6-0.3C87.4,50,87,49.5,87,48.7z M88.7,52.5
		c-0.4,0-0.7,0.1-0.9,0.2c-0.2,0.2-0.3,0.3-0.3,0.6c0,0.6,0.5,0.8,1.5,0.8c0.5,0,0.8-0.1,1.1-0.2c0.3-0.1,0.4-0.3,0.4-0.6
		c0-0.2-0.2-0.5-0.5-0.6C89.7,52.5,89.2,52.5,88.7,52.5z M89,47.7c-0.3,0-0.5,0.1-0.7,0.3c-0.2,0.2-0.3,0.4-0.3,0.7
		c0,0.3,0.1,0.5,0.3,0.7c0.2,0.2,0.5,0.3,0.8,0.3c0.3,0,0.6-0.1,0.8-0.3c0.2-0.2,0.3-0.4,0.3-0.7c0-0.3-0.1-0.5-0.3-0.7
		S89.3,47.7,89,47.7z"/>
	<path class="st0" d="M93.5,46.8V48l0.1-0.1c0.5-0.8,1-1.2,1.5-1.2c0.4,0,0.8,0.2,1.3,0.6l-0.6,0.9c-0.4-0.4-0.7-0.5-1-0.5
		c-0.3,0-0.6,0.2-0.9,0.5c-0.3,0.3-0.4,0.7-0.4,1.2v2.8h-1.1v-5.4H93.5z"/>
	<path class="st0" d="M100.5,49v2.3c0,0.2,0.1,0.3,0.2,0.3c0.1,0,0.3-0.1,0.6-0.3v0.7c-0.2,0.2-0.4,0.3-0.6,0.3
		c-0.1,0.1-0.3,0.1-0.5,0.1c-0.5,0-0.7-0.2-0.8-0.5c-0.5,0.4-0.9,0.5-1.4,0.5c-0.4,0-0.7-0.1-0.9-0.4c-0.2-0.2-0.4-0.6-0.4-0.9
		c0-0.3,0.1-0.6,0.4-0.9c0.2-0.3,0.6-0.5,1-0.6l1.4-0.5v-0.3c0-0.6-0.3-1-1-1c-0.6,0-1.1,0.3-1.7,0.9v-1.2c0.4-0.5,1-0.7,1.8-0.7
		c0.6,0,1,0.2,1.4,0.5c0.1,0.1,0.2,0.2,0.3,0.4c0.1,0.2,0.2,0.3,0.2,0.5C100.5,48.2,100.5,48.5,100.5,49z M99.4,51.1v-1.6l-0.7,0.3
		c-0.4,0.1-0.6,0.3-0.8,0.4c-0.2,0.1-0.2,0.3-0.2,0.5c0,0.2,0.1,0.4,0.2,0.5c0.1,0.1,0.3,0.2,0.6,0.2C98.8,51.5,99.2,51.4,99.4,51.1
		z"/>
	<path class="st0" d="M102,54.9v-8.1h1.9c1,0,1.7,0.2,2.2,0.7c0.5,0.5,0.8,1.1,0.8,2c0,0.8-0.3,1.5-0.8,2c-0.5,0.5-1.1,0.8-1.9,0.8
		c-0.3,0-0.7-0.1-1.1-0.2v2.9H102z M103.9,47.8h-0.8v3.3c0.3,0.2,0.7,0.3,1,0.3c0.5,0,0.9-0.2,1.2-0.5c0.3-0.3,0.5-0.8,0.5-1.3
		c0-0.4-0.1-0.7-0.2-0.9c-0.1-0.3-0.4-0.5-0.6-0.6C104.8,47.9,104.4,47.8,103.9,47.8z"/>
	<path class="st0" d="M108.1,44h1.1v3.5c0.4-0.5,1-0.8,1.7-0.8c0.4,0,0.7,0.1,1,0.3c0.3,0.2,0.5,0.4,0.6,0.7
		c0.1,0.3,0.2,0.8,0.2,1.4v3.1h-1.1v-3.3c0-0.4-0.1-0.7-0.3-1c-0.2-0.2-0.4-0.4-0.8-0.4c-0.2,0-0.5,0.1-0.7,0.2
		c-0.2,0.1-0.4,0.3-0.7,0.6v3.9h-1.1V44z"/>
	<path class="st0" d="M117,46.8h1.2l-3.8,8.1h-1.2L115,51l-2.1-4.2h1.2l1.5,3L117,46.8z"/>
	<path class="st0" d="M124.9,46.8c0.8,0,1.5,0.3,2,0.8c0.5,0.5,0.8,1.2,0.8,2c0,0.8-0.3,1.4-0.8,1.9c-0.6,0.5-1.2,0.8-2.1,0.8
		c-0.8,0-1.5-0.3-2-0.8c-0.5-0.5-0.8-1.2-0.8-2c0-0.8,0.3-1.4,0.8-2C123.3,47.1,124,46.8,124.9,46.8z M124.8,47.8
		c-0.5,0-0.9,0.2-1.3,0.5c-0.3,0.3-0.5,0.8-0.5,1.3c0,0.5,0.2,0.9,0.5,1.3c0.3,0.3,0.8,0.5,1.3,0.5c0.5,0,1-0.2,1.3-0.5
		c0.3-0.3,0.5-0.8,0.5-1.3c0-0.5-0.2-0.9-0.5-1.3C125.8,47.9,125.3,47.8,124.8,47.8z"/>
	<path class="st0" d="M129,46.8v-0.3c0-0.9,0.2-1.5,0.6-1.9c0.4-0.4,0.8-0.6,1.3-0.6c0.2,0,0.5,0,0.8,0.1v1
		c-0.2-0.1-0.3-0.1-0.5-0.1c-0.4,0-0.7,0.1-0.9,0.3c-0.2,0.2-0.2,0.6-0.2,1.2v0.3h1v1h-1v4.4H129v-4.4h-0.8v-1H129z"/>
	<path class="st0" d="M138.6,49v2.3c0,0.2,0.1,0.3,0.2,0.3c0.1,0,0.3-0.1,0.6-0.3v0.7c-0.2,0.2-0.4,0.3-0.6,0.3
		c-0.1,0.1-0.3,0.1-0.5,0.1c-0.5,0-0.7-0.2-0.8-0.5c-0.5,0.4-0.9,0.5-1.4,0.5c-0.4,0-0.7-0.1-0.9-0.4c-0.2-0.2-0.4-0.6-0.4-0.9
		c0-0.3,0.1-0.6,0.4-0.9c0.2-0.3,0.6-0.5,1-0.6l1.4-0.5v-0.3c0-0.6-0.3-1-1-1c-0.6,0-1.1,0.3-1.7,0.9v-1.2c0.4-0.5,1-0.7,1.8-0.7
		c0.6,0,1,0.2,1.4,0.5c0.1,0.1,0.2,0.2,0.3,0.4c0.1,0.2,0.2,0.3,0.2,0.5C138.6,48.2,138.6,48.5,138.6,49z M137.6,51.1v-1.6l-0.7,0.3
		c-0.4,0.1-0.6,0.3-0.8,0.4c-0.2,0.1-0.2,0.3-0.2,0.5c0,0.2,0.1,0.4,0.2,0.5c0.1,0.1,0.3,0.2,0.6,0.2
		C137,51.5,137.3,51.4,137.6,51.1z"/>
	<path class="st0" d="M143.7,44h1.1v8.2h-1.1V44z"/>
	<path class="st0" d="M149.7,49v2.3c0,0.2,0.1,0.3,0.2,0.3c0.1,0,0.3-0.1,0.6-0.3v0.7c-0.2,0.2-0.4,0.3-0.6,0.3
		c-0.1,0.1-0.3,0.1-0.5,0.1c-0.5,0-0.7-0.2-0.8-0.5c-0.5,0.4-0.9,0.5-1.4,0.5c-0.4,0-0.7-0.1-0.9-0.4c-0.2-0.2-0.4-0.6-0.4-0.9
		c0-0.3,0.1-0.6,0.4-0.9c0.2-0.3,0.6-0.5,1-0.6l1.4-0.5v-0.3c0-0.6-0.3-1-1-1c-0.6,0-1.1,0.3-1.7,0.9v-1.2c0.4-0.5,1-0.7,1.8-0.7
		c0.6,0,1,0.2,1.4,0.5c0.1,0.1,0.2,0.2,0.3,0.4c0.1,0.2,0.2,0.3,0.2,0.5C149.7,48.2,149.7,48.5,149.7,49z M148.7,51.1v-1.6l-0.7,0.3
		c-0.4,0.1-0.6,0.3-0.8,0.4c-0.2,0.1-0.2,0.3-0.2,0.5c0,0.2,0.1,0.4,0.2,0.5c0.1,0.1,0.3,0.2,0.6,0.2
		C148.1,51.5,148.4,51.4,148.7,51.1z"/>
	<path class="st0" d="M152.5,46.8v0.7c0.5-0.5,1-0.8,1.6-0.8c0.3,0,0.6,0.1,0.9,0.3c0.3,0.2,0.5,0.4,0.7,0.7
		c0.2,0.3,0.2,0.8,0.2,1.4v3.1h-1.1v-3.1c0-0.6-0.1-0.9-0.3-1.2c-0.2-0.2-0.4-0.4-0.8-0.4c-0.5,0-0.9,0.3-1.3,0.8v3.8h-1.1v-5.4
		H152.5z"/>
	<path class="st0" d="M161,44h1.1v8.2h-2.3c-0.8,0-1.4-0.3-1.9-0.8c-0.5-0.5-0.7-1.2-0.7-2c0-0.8,0.2-1.4,0.7-2
		c0.5-0.5,1.1-0.8,1.9-0.8c0.4,0,0.8,0.1,1.2,0.2V44z M161,51.3v-3.4c-0.3-0.2-0.7-0.3-1-0.3c-0.5,0-1,0.2-1.3,0.5
		c-0.3,0.3-0.5,0.8-0.5,1.4c0,0.6,0.1,1,0.4,1.3c0.2,0.2,0.3,0.3,0.5,0.4c0.2,0.1,0.5,0.1,1,0.1H161z"/>
	<path class="st0" d="M163.3,51.8v-1.1c0.3,0.2,0.6,0.4,0.9,0.5c0.3,0.1,0.6,0.2,0.8,0.2c0.2,0,0.4-0.1,0.6-0.2
		c0.2-0.1,0.2-0.2,0.2-0.4c0-0.2-0.1-0.3-0.2-0.4s-0.3-0.3-0.7-0.4c-0.7-0.4-1.1-0.7-1.4-1c-0.2-0.3-0.3-0.6-0.3-0.9
		c0-0.4,0.2-0.8,0.5-1c0.3-0.3,0.7-0.4,1.2-0.4c0.5,0,1.1,0.1,1.6,0.4v1.1c-0.6-0.4-1.2-0.6-1.6-0.6c-0.2,0-0.4,0-0.5,0.1
		c-0.1,0.1-0.2,0.2-0.2,0.3c0,0.1,0.1,0.2,0.2,0.4c0.1,0.1,0.3,0.2,0.6,0.4l0.4,0.2c0.9,0.5,1.3,1.1,1.3,1.7c0,0.4-0.2,0.8-0.5,1.1
		c-0.3,0.3-0.8,0.4-1.3,0.4c-0.3,0-0.6,0-0.9-0.1C164,52.1,163.7,52,163.3,51.8z"/>
	<path class="st0" d="M172.2,50.9V52c-0.5,0.2-1.1,0.3-1.6,0.3c-0.8,0-1.5-0.2-2-0.8c-0.5-0.5-0.8-1.2-0.8-2c0-0.8,0.2-1.5,0.7-2.1
		c0.5-0.5,1.1-0.8,1.9-0.8c0.3,0,0.5,0,0.7,0.1c0.2,0.1,0.5,0.2,0.8,0.3v1.1c-0.5-0.3-1-0.5-1.5-0.5c-0.5,0-0.9,0.2-1.2,0.5
		c-0.3,0.3-0.5,0.8-0.5,1.3c0,0.6,0.2,1,0.5,1.3c0.3,0.3,0.8,0.5,1.4,0.5C171.2,51.3,171.7,51.2,172.2,50.9z"/>
	<path class="st0" d="M176.8,49v2.3c0,0.2,0.1,0.3,0.2,0.3c0.1,0,0.3-0.1,0.6-0.3v0.7c-0.2,0.2-0.4,0.3-0.6,0.3
		c-0.1,0.1-0.3,0.1-0.5,0.1c-0.5,0-0.7-0.2-0.8-0.5c-0.5,0.4-0.9,0.5-1.4,0.5c-0.4,0-0.7-0.1-0.9-0.4c-0.2-0.2-0.4-0.6-0.4-0.9
		c0-0.3,0.1-0.6,0.4-0.9c0.2-0.3,0.6-0.5,1-0.6l1.4-0.5v-0.3c0-0.6-0.3-1-1-1c-0.6,0-1.1,0.3-1.7,0.9v-1.2c0.4-0.5,1-0.7,1.8-0.7
		c0.6,0,1,0.2,1.4,0.5c0.1,0.1,0.2,0.2,0.3,0.4c0.1,0.2,0.2,0.3,0.2,0.5C176.8,48.2,176.8,48.5,176.8,49z M175.8,51.1v-1.6l-0.7,0.3
		c-0.4,0.1-0.6,0.3-0.8,0.4c-0.2,0.1-0.2,0.3-0.2,0.5c0,0.2,0.1,0.4,0.2,0.5c0.1,0.1,0.3,0.2,0.6,0.2
		C175.2,51.5,175.5,51.4,175.8,51.1z"/>
	<path class="st0" d="M178.4,54.9v-8.1h1.9c1,0,1.7,0.2,2.2,0.7c0.5,0.5,0.8,1.1,0.8,2c0,0.8-0.3,1.5-0.8,2
		c-0.5,0.5-1.1,0.8-1.9,0.8c-0.3,0-0.7-0.1-1.1-0.2v2.9H178.4z M180.2,47.8h-0.8v3.3c0.3,0.2,0.7,0.3,1,0.3c0.5,0,0.9-0.2,1.2-0.5
		c0.3-0.3,0.5-0.8,0.5-1.3c0-0.4-0.1-0.7-0.2-0.9c-0.1-0.3-0.4-0.5-0.6-0.6C181.1,47.9,180.7,47.8,180.2,47.8z"/>
	<path class="st0" d="M189,49.6h-3.8c0,0.5,0.2,0.9,0.5,1.2c0.3,0.3,0.7,0.5,1.2,0.5c0.7,0,1.4-0.2,1.9-0.7v1
		c-0.3,0.2-0.7,0.4-1,0.5c-0.3,0.1-0.7,0.1-1.1,0.1c-0.6,0-1.1-0.1-1.4-0.4c-0.4-0.2-0.7-0.6-0.9-1c-0.2-0.4-0.3-0.9-0.3-1.4
		c0-0.8,0.2-1.5,0.7-2c0.5-0.5,1.1-0.8,1.8-0.8c0.7,0,1.3,0.2,1.7,0.8s0.6,1.2,0.6,2V49.6z M185.3,49h2.7c0-0.4-0.2-0.8-0.4-1
		c-0.2-0.2-0.5-0.3-0.9-0.3c-0.4,0-0.7,0.1-0.9,0.3C185.5,48.2,185.3,48.5,185.3,49z"/>
</g>
</svg>
