<?xml version="1.0" encoding="utf-8"?>
<!-- Generator: Adobe Illustrator 23.0.1, SVG Export Plug-In . SVG Version: 6.00 Build 0)  -->
<svg version="1.1" id="Laag_1" xmlns="http://www.w3.org/2000/svg" xmlns:xlink="http://www.w3.org/1999/xlink" x="0px" y="0px"
	 viewBox="0 0 176.6 82.1" style="enable-background:new 0 0 176.6 82.1;" xml:space="preserve">
<style type="text/css">
	.st0{fill:#005597;}
	.st1{fill:#EC6608;}
</style>
<g>
	<path d="M6.6,49.2L3.5,71H0l3.1-21.8H6.6z"/>
	<path d="M19.6,71.1h-3.5l0.2-1.5l0,0l0,0c-1.3,1.2-2.6,1.8-4,1.8c-0.9,0-1.7-0.3-2.5-0.8S8.5,69.4,8,68.5c-0.4-0.9-0.6-1.9-0.6-3
		c0-1.8,0.4-3.5,1.3-4.9c0.8-1.4,2-2.5,3.5-3.2s3.3-1.1,5.3-1.1c1.4,0,2.7,0.2,4.1,0.5L19.6,71.1z M17.8,59.2c-0.3,0-0.6,0-0.9,0
		c-0.9,0-1.7,0.1-2.4,0.4s-1.3,0.7-1.8,1.2s-0.9,1.2-1.3,2c-0.3,0.8-0.5,1.7-0.5,2.5c0,1,0.2,1.9,0.7,2.5s1.1,0.9,1.8,0.9
		c0.5,0,1-0.2,1.6-0.5s1.1-0.8,1.7-1.3L17.8,59.2z"/>
	<path d="M36.1,71.1h-3.4l1.1-8c0.1-0.6,0.1-1,0.2-1.3c0-0.3,0-0.5,0-0.9c0-0.5-0.1-1-0.4-1.3s-0.6-0.5-1.1-0.5
		c-0.5,0-1,0.2-1.7,0.6s-1.5,1.1-2.3,2.1L27.2,71h-3.4l2-14.4h3.4l-0.3,2.3c0.8-0.8,1.7-1.5,2.5-1.9c0.8-0.4,1.6-0.6,2.5-0.6
		c0.8,0,1.5,0.2,2,0.5c0.6,0.4,1,0.8,1.3,1.5c0.3,0.6,0.4,1.3,0.4,2.1c0,0.2,0,0.4,0,0.5c0,0.2,0,0.3,0,0.5s0,0.4-0.1,0.6
		c0,0.2-0.1,0.5-0.1,0.9L36.1,71.1z"/>
	<path d="M54.2,56.6l-0.3,2.6h-2.6c0.3,0.5,0.5,0.9,0.6,1.3s0.2,0.8,0.2,1.3c0,1.4-0.4,2.5-1.2,3.5s-1.9,1.5-3.4,1.8
		c-0.5,0.1-0.9,0.2-1.4,0.2c-0.5,0.1-0.9,0.1-1.2,0.2c-0.4,0.1-0.7,0.2-0.9,0.4c-0.2,0.2-0.3,0.4-0.3,0.6s0.1,0.4,0.4,0.5
		c0.2,0.1,0.6,0.2,1,0.4c0.4,0.1,0.8,0.2,1.4,0.3c2,0.4,3.4,0.9,4.3,1.6s1.3,1.6,1.3,2.8c0,0.9-0.3,1.7-0.8,2.3
		c-0.5,0.7-1.3,1.2-2.3,1.5c-1,0.4-2.2,0.5-3.5,0.5S43,78.2,42,77.9s-1.7-0.7-2.3-1.3c-0.5-0.6-0.8-1.2-0.8-1.9c0-0.7,0.3-1.3,1-1.8
		c0.6-0.5,1.6-0.9,2.9-1.3v-0.1c-1.7-0.5-2.5-1.3-2.5-2.5c0-0.4,0.1-0.8,0.4-1.1c0.2-0.4,0.6-0.7,1-0.9c0.4-0.2,0.9-0.4,1.5-0.6
		c-1.7-0.9-2.6-2.3-2.6-4.2c0-1,0.3-2,0.8-2.8c0.5-0.9,1.2-1.6,2.1-2c0.9-0.5,1.9-0.7,3-0.7h7.7V56.6z M48.6,74.4
		c0-0.4-0.3-0.7-0.8-1s-1.4-0.6-2.7-0.9c-1,0.1-1.8,0.4-2.4,0.7c-0.6,0.3-0.9,0.7-0.9,1.2s0.3,0.9,0.9,1.2c0.6,0.3,1.5,0.4,2.7,0.4
		C47.6,76,48.6,75.5,48.6,74.4z M48.8,61.7c0-0.8-0.2-1.4-0.6-1.8c-0.4-0.5-1-0.7-1.7-0.7c-0.5,0-0.9,0.1-1.3,0.4s-0.7,0.7-0.9,1.2
		c-0.2,0.5-0.3,1.1-0.3,1.7c0,0.7,0.2,1.3,0.6,1.8s1,0.7,1.7,0.7c0.5,0,1-0.1,1.4-0.4s0.7-0.7,0.9-1.2
		C48.7,62.9,48.8,62.3,48.8,61.7z"/>
	<path d="M64.7,60.7c-1.1-0.6-1.9-1-2.5-1.2s-1.1-0.3-1.6-0.3c-0.6,0-1,0.1-1.3,0.3c-0.3,0.2-0.4,0.5-0.4,1c0,0.2,0.1,0.4,0.3,0.7
		c0.2,0.2,0.6,0.5,1,0.8l0.8,0.6c0.9,0.7,1.6,1.2,1.9,1.6c0.4,0.4,0.6,0.8,0.9,1.3c0.2,0.5,0.3,1,0.3,1.5c0,0.8-0.2,1.6-0.6,2.3
		c-0.4,0.7-1,1.2-1.8,1.6s-1.6,0.6-2.5,0.6s-1.8-0.1-2.6-0.3c-0.9-0.2-1.7-0.6-2.4-1.2l0.6-3c0.8,0.5,1.5,0.9,2.2,1.2
		c0.7,0.3,1.4,0.4,2,0.4c0.5,0,0.9-0.1,1.2-0.4c0.3-0.2,0.5-0.5,0.5-0.9c0-0.3-0.1-0.6-0.4-1c-0.3-0.3-0.7-0.7-1.2-1.1
		c-1.2-0.9-2.1-1.5-2.5-1.9s-0.7-0.8-0.9-1.2c-0.2-0.4-0.3-0.9-0.3-1.4c0-0.9,0.2-1.6,0.6-2.3c0.4-0.7,1-1.2,1.8-1.6
		s1.6-0.6,2.6-0.6c0.8,0,1.5,0.1,2.2,0.4s1.4,0.6,2.1,1C64.7,57.6,64.7,60.7,64.7,60.7z"/>
	<path class="st0" d="M86.2,60.7c-1.1-0.6-1.9-1-2.5-1.2s-1.1-0.3-1.6-0.3c-0.6,0-1,0.1-1.3,0.3c-0.3,0.2-0.4,0.5-0.4,1
		c0,0.2,0.1,0.4,0.3,0.7c0.2,0.2,0.6,0.5,1,0.8l0.8,0.6c0.9,0.7,1.6,1.2,1.9,1.6c0.4,0.4,0.6,0.8,0.9,1.3c0.2,0.5,0.3,1,0.3,1.5
		c0,0.8-0.2,1.6-0.6,2.3c-0.4,0.7-1,1.2-1.8,1.6s-1.6,0.6-2.5,0.6s-1.8-0.1-2.6-0.3c-0.9-0.2-1.7-0.6-2.4-1.2l0.6-3
		c0.8,0.5,1.5,0.9,2.2,1.2c0.7,0.3,1.4,0.4,2,0.4c0.5,0,0.9-0.1,1.2-0.4c0.3-0.2,0.5-0.5,0.5-0.9c0-0.3-0.1-0.6-0.4-1
		c-0.3-0.3-0.7-0.7-1.2-1.1c-1.2-0.9-2.1-1.5-2.5-1.9s-0.7-0.8-0.9-1.2c-0.2-0.4-0.3-0.9-0.3-1.4c0-0.9,0.2-1.6,0.6-2.3
		c0.4-0.7,1-1.2,1.8-1.6s1.6-0.6,2.6-0.6c0.8,0,1.5,0.1,2.2,0.4s1.4,0.6,2.1,1C86.2,57.6,86.2,60.7,86.2,60.7z"/>
	<path class="st0" d="M104.2,62.8c0,1.1-0.2,2.1-0.6,3.1s-1,2-1.7,2.8c-0.8,0.8-1.7,1.5-2.8,2c-1.1,0.5-2.4,0.8-3.8,0.8
		c-0.1,0-0.4,0-1,0s-0.9-0.1-0.9-0.1l-1,7.1h-3.5l2.5-17.4c-0.5,0.3-0.9,0.7-1.2,1c-0.3,0.3-0.6,0.6-0.8,0.9
		c-0.2,0.3-0.4,0.5-0.5,0.7s-0.2,0.2-0.4,0.2s-0.2-0.1-0.2-0.2c0-0.3,0.1-0.8,0.4-1.4s0.7-1.2,1.2-1.9c0.5-0.6,1-1.2,1.7-1.7
		l0.7-5.3h3.5l-0.5,3.3c0.7-0.2,1.6-0.4,2.6-0.4c1.2,0,2.2,0.3,3.1,0.8c0.9,0.6,1.7,1.3,2.2,2.3C103.9,60.4,104.2,61.5,104.2,62.8z
		 M100.7,62.8c0-1.2-0.3-2.2-1-2.9c-0.6-0.7-1.5-1.1-2.6-1.1c-0.4,0-0.7,0-1,0.1s-0.6,0.2-1,0.4l-1.3,9.2c0.1,0,0.3,0.1,0.5,0.1
		c0.3,0,0.5,0,0.8,0c1.1,0,2-0.2,2.8-0.7s1.5-1.2,1.9-2.1C100.4,64.9,100.7,63.9,100.7,62.8z"/>
	<path class="st0" d="M120.8,62.8c0,1.6-0.3,3.1-1,4.4c-0.6,1.3-1.5,2.4-2.7,3.1c-1.2,0.8-2.4,1.1-3.8,1.1c-1.2,0-2.3-0.3-3.3-0.8
		c-1-0.6-1.7-1.4-2.2-2.4S107,66,107,64.7c0-1.6,0.3-3,1-4.3s1.6-2.4,2.8-3.1c1.2-0.7,2.4-1.1,3.8-1.1c1.2,0,2.3,0.3,3.2,0.8
		s1.7,1.3,2.2,2.3C120.6,60.4,120.8,61.5,120.8,62.8z M117.3,62.6c0-1.1-0.2-1.9-0.7-2.6s-1.2-1-2-1s-1.4,0.3-2,0.8
		s-1.1,1.3-1.4,2.2c-0.3,1-0.5,1.9-0.5,2.9c0,0.7,0.1,1.3,0.4,1.8c0.2,0.5,0.6,1,1,1.3s0.9,0.4,1.4,0.4c0.7,0,1.4-0.3,2-0.8
		s1.1-1.2,1.4-2.1C117.1,64.7,117.3,63.7,117.3,62.6z"/>
	<path class="st0" d="M133.1,60.5c-0.2-0.3-0.5-0.5-0.7-0.6s-0.5-0.2-0.8-0.2c-1.1,0-2.1,1-3.1,3l-1.2,8.4h-3.4l2-14.4h3.5l-0.4,2.6
		c0.7-1,1.4-1.7,2-2.2s1.2-0.7,1.8-0.7c0.4,0,0.7,0.1,1,0.2s0.6,0.3,0.9,0.6L133.1,60.5z"/>
	<path class="st0" d="M142.6,56.3c1.1,0,2,0.3,2.9,0.8c0.8,0.5,1.5,1.2,2,2.1s0.7,2,0.7,3.1c0,0.5-0.1,1.1-0.2,1.7h-9.2
		c-0.1,0.4-0.1,0.7-0.1,1c0,0.8,0.2,1.4,0.5,2s0.7,1,1.3,1.3s1.2,0.5,1.9,0.5s1.4-0.1,2.2-0.4s1.7-0.7,2.8-1.3l-0.6,3
		c-1.7,0.9-3.3,1.4-4.9,1.4c-1.3,0-2.5-0.3-3.4-0.9c-1-0.6-1.8-1.4-2.3-2.5s-0.8-2.3-0.8-3.7c0-1.5,0.3-2.9,1-4.1
		c0.6-1.3,1.5-2.3,2.6-3S141.3,56.3,142.6,56.3z M144.9,61.8v-0.2c0-0.8-0.2-1.5-0.6-2c-0.4-0.5-1-0.7-1.8-0.7c-1.5,0-2.6,1-3.2,3
		h5.6V61.8z"/>
	<path class="st0" d="M163.4,71.1H160l1.1-8c0.1-0.6,0.1-1,0.2-1.3c0-0.3,0-0.5,0-0.9c0-0.5-0.1-1-0.4-1.3c-0.3-0.3-0.6-0.5-1.1-0.5
		s-1,0.2-1.7,0.6s-1.5,1.1-2.3,2.1l-1.3,9.2h-3.4l2-14.4h3.4l-0.3,2.3c0.8-0.8,1.7-1.5,2.5-1.9s1.6-0.6,2.5-0.6c0.8,0,1.5,0.2,2,0.5
		c0.6,0.4,1,0.8,1.3,1.5c0.3,0.6,0.4,1.3,0.4,2.1c0,0.2,0,0.4,0,0.5c0,0.2,0,0.3,0,0.5s0,0.4-0.1,0.6c0,0.2-0.1,0.5-0.1,0.9
		L163.4,71.1z"/>
</g>
<g>
	<path class="st1" d="M17,35c1-0.2,2-0.6,2.9-1c3.8-1.6,6.7-4.3,8-6.9c-0.6,2.9-2.7,5.8-5.8,7.9c-2.1,1.4-4.4,2.2-6.6,2.5
		c-1.4,2.1-2.8,4-4.4,5.8c3.7-1.8,6.8-3.4,10.3-3.7c2.4-0.2,6,0.1,6.6-2.2c0.3-1.3-0.9-2.1-0.7-3.4c0.2-1.2,1-1.5,1.5-2
		c1.1-1-0.3-1.3-0.2-1.9c0.1-0.6,1.8,0.1,1.1-1.5c-0.8-1.6-0.7-2.5-0.1-3.1c1.3-1.1,5.1,0.6,2.4-4.7c-1.2-2.4-2-3.3-2.5-5.9
		c-0.2-1,0.8-2.2,1.2-3C32,9.1,27.3,5,24.2,0c0.5,4.4,0.5,9.3-0.2,14.3c2.5-1.7,4.3-4,4.8-6.1c-0.1,2.2-1.2,4.7-3.3,6.6
		c-0.6,0.6-1.2,1-1.8,1.4c-0.2,1.1-0.5,2.2-0.7,3.3c-0.4,1.7-0.8,3.3-1.3,4.9c0.5-0.2,1-0.4,1.5-0.7c3-1.6,5.2-4,6.1-6.3
		c-0.3,2.4-1.8,5-4.2,7c-1.3,1-2.7,1.7-4.1,2.2C19.7,29.7,18.4,32.5,17,35L17,35z"/>
	<path class="st0" d="M14.6,27.2c0.3-0.2,1-1.1,1.2-1.3l-2.7-4.1c-0.1-0.2-1.6-2.2-1.7-2.4c-0.3-0.4-0.3-1-0.6-1.4
		c-1-1.4-0.9-2.6-1.2-4.3c-0.4,1.3-0.5,2.7-0.1,4.1l0.3,1.5l0.6,1.5c0.5,0.7,1.1,1.1,1.6,1.8c0.4,0.6,0.7,0.8,1.2,1.5
		c0.6,0.9,0.3,0.5,0.9,1.4C14.3,25.4,14.5,27.1,14.6,27.2L14.6,27.2z"/>
	<path class="st0" d="M17.1,7.7c-0.2,0.6-0.7,2.5-0.6,3.2l0.4,1.6c0.8,1.3,1.6,1.4,2.4,2.7c0.1,0.2,0.2,1.5,0.2,1.4
		c0-0.2,0.9-1.7,1-1.9c-0.3-0.3-0.4-0.5-0.7-0.8s-0.4-0.5-0.7-0.7c-0.2-0.2-0.3-0.4-0.5-0.7l-1-1.8C17.2,10,17.2,8.6,17.1,7.7
		L17.1,7.7z"/>
	<path class="st0" d="M11.6,36.8c-0.4-0.8-0.7-1.4-1.3-2.2l-2.5-3.5c-1.6-2.7-1.5-5.4-2.2-8.3c0,0.6-0.5,2.2-0.6,2.8
		c-0.1,0.5-0.1,0.9,0,1.5s0.3,0.7,0.4,1.3c0.2,0.8,0,1.5,0.4,2.2c0.3,0.7-0.2,1.1,0.4,1.7c0.7,0.8,1.6,1.1,2.3,1.8
		c0.8,0.8,0.5,1,1,2c0.3,0.7,0.3,2,0.6,2.7l0.8-0.8c0.2-0.4,0.1-0.5,0.4-0.8C11.3,37.2,11.5,36.8,11.6,36.8L11.6,36.8z"/>
</g>
<g>
	<path class="st1" d="M45.5,30.9h1.1v3.2c0.5-0.3,1-0.5,1.5-0.5c0.7,0,1.2,0.3,1.7,0.8c0.4,0.5,0.7,1.2,0.7,2c0,0.9-0.3,1.6-0.8,2.1
		c-0.7,0.4-1.4,0.7-2.2,0.7c-0.3,0-0.7,0-1.1-0.1s-0.7-0.2-0.9-0.3C45.5,38.8,45.5,30.9,45.5,30.9z M46.5,35.1V38
		c0.4,0.1,0.7,0.2,1.1,0.2c0.5,0,0.9-0.2,1.2-0.5c0.3-0.3,0.4-0.8,0.4-1.3s-0.1-1-0.4-1.3s-0.6-0.5-1.1-0.5
		C47.3,34.6,46.9,34.7,46.5,35.1z"/>
	<path class="st1" d="M52.1,31.4c0.2,0,0.3,0.1,0.5,0.2c0.1,0.1,0.2,0.3,0.2,0.4c0,0.2-0.1,0.3-0.2,0.4s-0.3,0.2-0.5,0.2
		s-0.3-0.1-0.4-0.2c-0.1-0.1-0.2-0.3-0.2-0.4c0-0.2,0.1-0.3,0.2-0.4C51.7,31.5,51.9,31.4,52.1,31.4z M51.5,33.7h1.1v5.4h-1.1V33.7z"
		/>
	<path class="st1" d="M56.7,33.7c0.8,0,1.5,0.3,2,0.8s0.8,1.2,0.8,2s-0.3,1.4-0.8,1.9c-0.6,0.5-1.2,0.8-2.1,0.8
		c-0.8,0-1.5-0.3-2-0.8s-0.8-1.2-0.8-2s0.3-1.4,0.8-2C55.2,33.9,55.9,33.7,56.7,33.7z M56.7,34.6c-0.5,0-0.9,0.2-1.3,0.5
		c-0.3,0.3-0.5,0.8-0.5,1.3s0.2,0.9,0.5,1.3c0.3,0.3,0.8,0.5,1.3,0.5s1-0.2,1.3-0.5s0.5-0.8,0.5-1.3s-0.2-0.9-0.5-1.3
		C57.6,34.8,57.2,34.6,56.7,34.6z"/>
	<path class="st1" d="M60.5,35.5c0-0.6,0.2-1,0.6-1.4s1-0.5,1.7-0.5H65v0.8h-1.1c0.2,0.2,0.4,0.4,0.4,0.6c0.1,0.2,0.1,0.4,0.1,0.6
		c0,0.3-0.1,0.6-0.2,0.8c-0.2,0.3-0.4,0.5-0.6,0.6c-0.3,0.1-0.7,0.3-1.2,0.3c-0.4,0.1-0.6,0.2-0.6,0.4c0,0.1,0.1,0.2,0.2,0.3
		c0.2,0.1,0.4,0.2,0.8,0.2c0.7,0.1,1.1,0.3,1.3,0.3c0.2,0.1,0.4,0.2,0.5,0.4c0.3,0.3,0.4,0.6,0.4,1c0,0.5-0.2,0.9-0.7,1.2
		s-1.1,0.5-1.8,0.5c-0.8,0-1.4-0.2-1.8-0.5c-0.5-0.3-0.7-0.7-0.7-1.2c0-0.7,0.5-1.2,1.4-1.4c-0.4-0.2-0.5-0.5-0.5-0.7
		s0.1-0.3,0.2-0.5c0.2-0.1,0.4-0.2,0.6-0.3C60.9,36.9,60.5,36.3,60.5,35.5z M62.2,39.3c-0.4,0-0.7,0.1-0.9,0.2
		c-0.2,0.2-0.3,0.3-0.3,0.6c0,0.6,0.5,0.8,1.5,0.8c0.5,0,0.8-0.1,1.1-0.2c0.3-0.1,0.4-0.3,0.4-0.6c0-0.2-0.2-0.5-0.5-0.6
		S62.8,39.3,62.2,39.3z M62.5,34.6c-0.3,0-0.5,0.1-0.7,0.3s-0.3,0.4-0.3,0.7s0.1,0.5,0.3,0.7c0.2,0.2,0.5,0.3,0.8,0.3
		s0.6-0.1,0.8-0.3c0.2-0.2,0.3-0.4,0.3-0.7s-0.1-0.5-0.3-0.7C63,34.7,62.8,34.6,62.5,34.6z"/>
	<path class="st1" d="M67,33.7v1.2l0.1-0.1c0.5-0.8,1-1.2,1.5-1.2c0.4,0,0.8,0.2,1.3,0.6l-0.6,0.9c-0.4-0.4-0.7-0.5-1-0.5
		s-0.6,0.2-0.9,0.5S67,35.8,67,36.3v2.8h-1.1v-5.4H67z"/>
	<path class="st1" d="M74,35.8v2.3c0,0.2,0.1,0.3,0.2,0.3s0.3-0.1,0.6-0.3v0.7c-0.2,0.2-0.4,0.3-0.6,0.3c-0.1,0.1-0.3,0.1-0.5,0.1
		c-0.5,0-0.7-0.2-0.8-0.5c-0.5,0.4-0.9,0.5-1.4,0.5c-0.4,0-0.7-0.1-0.9-0.4c-0.2-0.2-0.4-0.6-0.4-0.9c0-0.3,0.1-0.6,0.4-0.9
		s0.6-0.5,1-0.6l1.4-0.5v-0.3c0-0.6-0.3-1-1-1c-0.6,0-1.1,0.3-1.7,0.9v-1.2c0.4-0.5,1-0.7,1.8-0.7c0.6,0,1,0.2,1.4,0.5
		c0.1,0.1,0.2,0.2,0.3,0.4c0.1,0.2,0.2,0.3,0.2,0.5C74,35.1,74,35.4,74,35.8z M73,38v-1.6l-0.7,0.3c-0.4,0.1-0.6,0.3-0.8,0.4
		s-0.2,0.3-0.2,0.6c0,0.2,0.1,0.4,0.2,0.5s0.3,0.2,0.6,0.2C72.4,38.4,72.7,38.3,73,38z"/>
	<path class="st1" d="M75.9,33.7v-0.3c0-0.9,0.2-1.5,0.6-1.9s0.8-0.6,1.3-0.6c0.2,0,0.5,0,0.8,0.1v1c-0.2-0.1-0.3-0.1-0.5-0.1
		c-0.4,0-0.7,0.1-0.9,0.3C77,32.4,77,32.8,77,33.4v0.3h1v1h-1v4.4h-1.1v-4.4h-0.8v-1H75.9z"/>
	<path class="st1" d="M79.3,31.4c0.2,0,0.3,0.1,0.5,0.2c0.1,0.1,0.2,0.3,0.2,0.4c0,0.2-0.1,0.3-0.2,0.4s-0.3,0.2-0.5,0.2
		s-0.3-0.1-0.4-0.2c-0.1-0.1-0.2-0.3-0.2-0.4c0-0.2,0.1-0.3,0.2-0.4S79.1,31.4,79.3,31.4z M78.8,33.7h1.1v5.4h-1.1V33.7z"/>
	<path class="st1" d="M86,36.5h-3.8c0,0.5,0.2,0.9,0.5,1.2s0.7,0.5,1.2,0.5c0.7,0,1.4-0.2,1.9-0.7v1c-0.3,0.2-0.7,0.4-1,0.5
		s-0.7,0.1-1.1,0.1c-0.6,0-1.1-0.1-1.4-0.4c-0.4-0.2-0.7-0.6-0.9-1c-0.2-0.4-0.3-0.9-0.3-1.4c0-0.8,0.2-1.5,0.7-2s1.1-0.8,1.8-0.8
		c0.7,0,1.3,0.2,1.7,0.8c0.4,0.5,0.6,1.2,0.6,2v0.2H86z M82.2,35.8h2.7c0-0.4-0.2-0.8-0.4-1c-0.2-0.2-0.5-0.3-0.9-0.3
		s-0.7,0.1-0.9,0.3C82.4,35.1,82.3,35.4,82.2,35.8z"/>
	<path class="st1" d="M93.8,33.7H95l-2.4,5.5h-0.4l-2.4-5.5H91l1.5,3.3L93.8,33.7z"/>
	<path class="st1" d="M99.1,35.8v2.3c0,0.2,0.1,0.3,0.2,0.3s0.3-0.1,0.6-0.3v0.7c-0.2,0.2-0.4,0.3-0.6,0.3c-0.1,0.1-0.3,0.1-0.5,0.1
		c-0.5,0-0.7-0.2-0.8-0.5c-0.5,0.4-0.9,0.5-1.4,0.5c-0.4,0-0.7-0.1-0.9-0.4c-0.2-0.2-0.4-0.6-0.4-0.9c0-0.3,0.1-0.6,0.4-0.9
		c0.2-0.3,0.6-0.5,1-0.6l1.4-0.5v-0.3c0-0.6-0.3-1-1-1c-0.6,0-1.1,0.3-1.7,0.9v-1.2c0.4-0.5,1-0.7,1.8-0.7c0.6,0,1,0.2,1.4,0.5
		c0.1,0.1,0.2,0.2,0.3,0.4c0.1,0.2,0.2,0.3,0.2,0.5C99.1,35.1,99.1,35.4,99.1,35.8z M98.1,38v-1.6l-0.7,0.3
		c-0.4,0.1-0.6,0.3-0.8,0.4s-0.2,0.3-0.2,0.5s0.1,0.4,0.2,0.5s0.3,0.2,0.6,0.2C97.5,38.4,97.8,38.3,98.1,38z"/>
	<path class="st1" d="M101.9,33.7v0.7c0.5-0.5,1-0.8,1.6-0.8c0.3,0,0.6,0.1,0.9,0.3s0.5,0.4,0.7,0.7s0.2,0.8,0.2,1.4v3.1h-1V36
		c0-0.6-0.1-0.9-0.3-1.2c-0.2-0.2-0.4-0.4-0.8-0.4c-0.5,0-0.9,0.3-1.3,0.8V39h-1.1v-5.4h1.1V33.7z"/>
	<path class="st1" d="M114.8,36.5H111c0,0.5,0.2,0.9,0.5,1.2s0.7,0.5,1.2,0.5c0.7,0,1.4-0.2,1.9-0.7v1c-0.3,0.2-0.7,0.4-1,0.5
		s-0.7,0.1-1.1,0.1c-0.6,0-1.1-0.1-1.4-0.4c-0.4-0.2-0.7-0.6-0.9-1c-0.2-0.4-0.3-0.9-0.3-1.4c0-0.8,0.2-1.5,0.7-2
		c0.5-0.5,1.1-0.8,1.8-0.8s1.3,0.2,1.7,0.8c0.4,0.5,0.6,1.2,0.6,2v0.2H114.8z M111,35.8h2.7c0-0.4-0.2-0.8-0.4-1s-0.5-0.3-0.9-0.3
		s-0.7,0.1-0.9,0.3C111.2,35.1,111.1,35.4,111,35.8z"/>
	<path class="st1" d="M120.5,36.5h-3.8c0,0.5,0.2,0.9,0.5,1.2s0.7,0.5,1.2,0.5c0.7,0,1.4-0.2,1.9-0.7v1c-0.3,0.2-0.7,0.4-1,0.5
		s-0.7,0.1-1.1,0.1c-0.6,0-1.1-0.1-1.4-0.4c-0.4-0.2-0.7-0.6-0.9-1s-0.3-0.9-0.3-1.4c0-0.8,0.2-1.5,0.7-2s1.1-0.8,1.8-0.8
		s1.3,0.2,1.7,0.8s0.6,1.2,0.6,2v0.2H120.5z M116.7,35.8h2.7c0-0.4-0.2-0.8-0.4-1s-0.5-0.3-0.9-0.3s-0.7,0.1-0.9,0.3
		C117,35.1,116.8,35.4,116.7,35.8z"/>
	<path class="st1" d="M122.7,33.7v0.7c0.5-0.5,1-0.8,1.6-0.8c0.3,0,0.6,0.1,0.9,0.3c0.3,0.2,0.5,0.4,0.7,0.7s0.2,0.8,0.2,1.4v3.1
		H125V36c0-0.6-0.1-0.9-0.3-1.2c-0.2-0.2-0.4-0.4-0.8-0.4c-0.5,0-0.9,0.3-1.3,0.8V39h-1.1v-5.4h1.2V33.7z"/>
	<path class="st1" d="M131,30.9h1.1v8.2H131V30.9z"/>
	<path class="st1" d="M137,35.8v2.3c0,0.2,0.1,0.3,0.2,0.3c0.1,0,0.3-0.1,0.6-0.3v0.7c-0.2,0.2-0.4,0.3-0.6,0.3
		c-0.1,0.1-0.3,0.1-0.5,0.1c-0.5,0-0.7-0.2-0.8-0.5c-0.5,0.4-0.9,0.5-1.4,0.5c-0.4,0-0.7-0.1-0.9-0.4c-0.2-0.2-0.4-0.6-0.4-0.9
		c0-0.3,0.1-0.6,0.4-0.9c0.2-0.3,0.6-0.5,1-0.6l1.4-0.5v-0.3c0-0.6-0.3-1-1-1c-0.6,0-1.1,0.3-1.7,0.9v-1.2c0.4-0.5,1-0.7,1.8-0.7
		c0.6,0,1,0.2,1.4,0.5c0.1,0.1,0.2,0.2,0.3,0.4s0.2,0.3,0.2,0.5C137,35.1,137,35.4,137,35.8z M136,38v-1.6l-0.7,0.3
		c-0.4,0.1-0.6,0.3-0.8,0.4c-0.2,0.1-0.2,0.3-0.2,0.5s0.1,0.4,0.2,0.5c0.1,0.1,0.3,0.2,0.6,0.2C135.4,38.4,135.7,38.3,136,38z"/>
	<path class="st1" d="M139.8,33.7v0.7c0.5-0.5,1-0.8,1.6-0.8c0.3,0,0.6,0.1,0.9,0.3c0.3,0.2,0.5,0.4,0.7,0.7s0.2,0.8,0.2,1.4v3.1
		h-1.1V36c0-0.6-0.1-0.9-0.3-1.2c-0.2-0.2-0.4-0.4-0.8-0.4c-0.5,0-0.9,0.3-1.3,0.8V39h-1.1v-5.4h1.2V33.7z"/>
	<path class="st1" d="M148.4,30.9h1.1v8.2h-2.3c-0.8,0-1.4-0.3-1.9-0.8s-0.7-1.2-0.7-2s0.2-1.4,0.7-2s1.1-0.8,1.9-0.8
		c0.4,0,0.8,0.1,1.2,0.2V30.9z M148.4,38.2v-3.4c-0.3-0.2-0.7-0.3-1-0.3c-0.5,0-1,0.2-1.3,0.5s-0.5,0.8-0.5,1.4c0,0.6,0.1,1,0.4,1.3
		c0.2,0.2,0.3,0.3,0.5,0.4c0.2,0.1,0.5,0.1,1,0.1H148.4z"/>
	<path class="st1" d="M150.6,38.7v-1.1c0.3,0.2,0.6,0.4,0.9,0.5c0.3,0.1,0.6,0.2,0.8,0.2s0.4-0.1,0.6-0.2c0.2-0.1,0.2-0.2,0.2-0.4
		s-0.1-0.3-0.2-0.4c-0.1-0.1-0.3-0.3-0.7-0.4c-0.7-0.4-1.1-0.7-1.4-1c-0.2-0.3-0.3-0.6-0.3-0.9c0-0.4,0.2-0.8,0.5-1
		c0.3-0.3,0.7-0.4,1.2-0.4s1.1,0.1,1.6,0.4v1.1c-0.6-0.4-1.2-0.6-1.6-0.6c-0.2,0-0.4,0-0.5,0.1s-0.2,0.2-0.2,0.3s0.1,0.2,0.2,0.4
		s0.3,0.2,0.6,0.4l0.4,0.2c0.9,0.5,1.3,1.1,1.3,1.7c0,0.4-0.2,0.8-0.5,1.1s-0.8,0.4-1.3,0.4c-0.3,0-0.6,0-0.9-0.1
		C151.3,39,151,38.9,150.6,38.7z"/>
	<path class="st1" d="M159.5,37.8v1.1c-0.5,0.2-1.1,0.3-1.6,0.3c-0.8,0-1.5-0.2-2-0.8c-0.5-0.5-0.8-1.2-0.8-2s0.2-1.5,0.7-2.1
		c0.5-0.5,1.1-0.8,1.9-0.8c0.3,0,0.5,0,0.7,0.1s0.5,0.2,0.8,0.3V35c-0.5-0.3-1-0.5-1.5-0.5s-0.9,0.2-1.2,0.5s-0.5,0.8-0.5,1.3
		c0,0.6,0.2,1,0.5,1.3s0.8,0.5,1.4,0.5C158.5,38.2,159,38,159.5,37.8z"/>
	<path class="st1" d="M160.7,30.9h1.1v3.5c0.4-0.5,1-0.8,1.7-0.8c0.4,0,0.7,0.1,1,0.3s0.5,0.4,0.6,0.7s0.2,0.8,0.2,1.4v3.1h-1.1
		v-3.3c0-0.4-0.1-0.7-0.3-1c-0.2-0.2-0.4-0.4-0.8-0.4c-0.2,0-0.5,0.1-0.7,0.2c-0.2,0.1-0.4,0.3-0.7,0.6v3.9h-1.1v-8.2H160.7z"/>
	<path class="st1" d="M170.1,35.8v2.3c0,0.2,0.1,0.3,0.2,0.3c0.1,0,0.3-0.1,0.6-0.3v0.7c-0.2,0.2-0.4,0.3-0.6,0.3
		c-0.1,0.1-0.3,0.1-0.5,0.1c-0.5,0-0.7-0.2-0.8-0.5c-0.5,0.4-0.9,0.5-1.4,0.5c-0.4,0-0.7-0.1-0.9-0.4c-0.2-0.2-0.4-0.6-0.4-0.9
		c0-0.3,0.1-0.6,0.4-0.9c0.2-0.3,0.6-0.5,1-0.6l1.4-0.5v-0.3c0-0.6-0.3-1-1-1c-0.6,0-1.1,0.3-1.7,0.9v-1.2c0.4-0.5,1-0.7,1.8-0.7
		c0.6,0,1,0.2,1.4,0.5c0.1,0.1,0.2,0.2,0.3,0.4s0.2,0.3,0.2,0.5C170.1,35.1,170.1,35.4,170.1,35.8z M169.1,38v-1.6l-0.7,0.3
		c-0.4,0.1-0.6,0.3-0.8,0.4c-0.2,0.1-0.2,0.3-0.2,0.5s0.1,0.4,0.2,0.5c0.1,0.1,0.3,0.2,0.6,0.2C168.5,38.4,168.8,38.3,169.1,38z"/>
	<path class="st1" d="M171.7,41.8v-8.1h1.9c1,0,1.7,0.2,2.2,0.7s0.8,1.1,0.8,2c0,0.8-0.3,1.5-0.8,2s-1.1,0.8-1.9,0.8
		c-0.3,0-0.7-0.1-1.1-0.2v2.9h-1.1V41.8z M173.5,34.7h-0.8V38c0.3,0.2,0.7,0.3,1,0.3c0.5,0,0.9-0.2,1.2-0.5s0.5-0.8,0.5-1.3
		c0-0.4-0.1-0.7-0.2-0.9c-0.1-0.3-0.4-0.5-0.6-0.6C174.4,34.7,174,34.7,173.5,34.7z"/>
</g>
</svg>
